{
  "header": {
    "keySignatures": [],
    "meta": [],
    "name": "",
    "ppq": 480,
    "tempos": [
      {
        "bpm": 240,
        "ticks": 0
      }
    ],
    "timeSignatures": [
      {
        "ticks": 0,
        "timeSignature": [
          4,
          4
        ],
        "measures": 0
      }
    ]
  },
  "tracks": [
    {
      "channel": 0,
      "controlChanges": {
        "1": [
          {
            "number": 1,
            "ticks": 0,
            "time": 0,
            "value": 0
          }
        ],
        "6": [
          {
            "number": 6,
            "ticks": 0,
            "time": 0,
            "value": 0.5039370078740157
          },
          {
            "number": 6,
            "ticks": 0,
            "time": 0,
            "value": 0.5039370078740157
          },
          {
            "number": 6,
            "ticks": 0,
            "time": 0,
            "value": 0.09448818897637795
          }
        ],
        "7": [
          {
            "number": 7,
            "ticks": 0,
            "time": 0,
            "value": 0.2992125984251969
          }
        ],
        "10": [
          {
            "number": 10,
            "ticks": 0,
            "time": 0,
            "value": 0.5039370078740157
          }
        ],
        "11": [
          {
            "number": 11,
            "ticks": 0,
            "time": 0,
            "value": 1
          }
        ],
        "38": [
          {
            "number": 38,
            "ticks": 0,
            "time": 0,
            "value": 0
          }
        ],
        "100": [
          {
            "number": 100,
            "ticks": 0,
            "time": 0,
            "value": 0.015748031496062992
          },
          {
            "number": 100,
            "ticks": 0,
            "time": 0,
            "value": 0.007874015748031496
          },
          {
            "number": 100,
            "ticks": 0,
            "time": 0,
            "value": 0
          }
        ],
        "101": [
          {
            "number": 101,
            "ticks": 0,
            "time": 0,
            "value": 0
          },
          {
            "number": 101,
            "ticks": 0,
            "time": 0,
            "value": 0
          },
          {
            "number": 101,
            "ticks": 0,
            "time": 0,
            "value": 0
          }
        ],
        "121": [
          {
            "number": 121,
            "ticks": 0,
            "time": 0,
            "value": 0
          }
        ]
      },
      "pitchBends": [
        {
          "ticks": 0,
          "time": 0,
          "value": 0
        }
      ],
      "instrument": {
        "family": "piano",
        "number": 0,
        "name": "acoustic grand piano"
      },
      "name": "",
      "notes": [],
      "endOfTrackTicks": 61440
    },
    {
      "channel": 0,
      "controlChanges": {},
      "pitchBends": [],
      "instrument": {
        "family": "synth lead",
        "number": 80,
        "name": "lead 1 (square)"
      },
      "name": "",
      "notes": [
        {
          "duration": 0.125,
          "durationTicks": 240,
          "midi": 64,
          "name": "E4",
          "ticks": 0,
          "time": 0,
          "velocity": 1
        },
        {
          "duration": 1,
          "durationTicks": 1920,
          "midi": 48,
          "name": "C3",
          "ticks": 0,
          "time": 0,
          "velocity": 1
        },
        {
          "duration": 0.125,
          "durationTicks": 240,
          "midi": 67,
          "name": "G4",
          "ticks": 480,
          "time": 0.25,
          "velocity": 1
        },
        {
          "duration": 0.125,
          "durationTicks": 240,
          "midi": 67,
          "name": "G4",
          "ticks": 960,
          "time": 0.5,
          "velocity": 1
        },
        {
          "duration": 0.125,
          "durationTicks": 240,
          "midi": 69,
          "name": "A4",
          "ticks": 1440,
          "time": 0.75,
          "velocity": 1
        },
        {
          "duration": 0.125,
          "durationTicks": 240,
          "midi": 67,
          "name": "G4",
          "ticks": 1920,
          "time": 1,
          "velocity": 1
        },
        {
          "duration": 1,
          "durationTicks": 1920,
          "midi": 50,
          "name": "D3",
          "ticks": 1920,
          "time": 1,
          "velocity": 1
        },
        {
          "duration": 0.125,
          "durationTicks": 240,
          "midi": 67,
          "name": "G4",
          "ticks": 2880,
          "time": 1.5,
          "velocity": 1
        },
        {
          "duration": 0.125,
          "durationTicks": 240,
          "midi": 74,
          "name": "D5",
          "ticks": 3840,
          "time": 2,
          "velocity": 1
        },
        {
          "duration": 1,
          "durationTicks": 1920,
          "midi": 55,
          "name": "G3",
          "ticks": 3840,
          "time": 2,
          "velocity": 1
        },
        {
          "duration": 0.125,
          "durationTicks": 240,
          "midi": 71,
          "name": "B4",
          "ticks": 4320,
          "time": 2.25,
          "velocity": 1
        },
        {
          "duration": 0.125,
          "durationTicks": 240,
          "midi": 69,
          "name": "A4",
          "ticks": 4800,
          "time": 2.5,
          "velocity": 1
        },
        {
          "duration": 0.125,
          "durationTicks": 240,
          "midi": 71,
          "name": "B4",
          "ticks": 5280,
          "time": 2.75,
          "velocity": 1
        },
        {
          "duration": 0.125,
          "durationTicks": 240,
          "midi": 67,
          "name": "G4",
          "ticks": 5760,
          "time": 3,
          "velocity": 1
        },
        {
          "duration": 1,
          "durationTicks": 1920,
          "midi": 52,
          "name": "E3",
          "ticks": 5760,
          "time": 3,
          "velocity": 1
        },
        {
          "duration": 0.125,
          "durationTicks": 240,
          "midi": 64,
          "name": "E4",
          "ticks": 7680,
          "time": 4,
          "velocity": 1
        },
        {
          "duration": 1,
          "durationTicks": 1920,
          "midi": 48,
          "name": "C3",
          "ticks": 7680,
          "time": 4,
          "velocity": 1
        },
        {
          "duration": 0.125,
          "durationTicks": 240,
          "midi": 67,
          "name": "G4",
          "ticks": 8160,
          "time": 4.25,
          "velocity": 1
        },
        {
          "duration": 0.125,
          "durationTicks": 240,
          "midi": 67,
          "name": "G4",
          "ticks": 8640,
          "time": 4.5,
          "velocity": 1
        },
        {
          "duration": 0.125,
          "durationTicks": 240,
          "midi": 69,
          "name": "A4",
          "ticks": 9120,
          "time": 4.75,
          "velocity": 1
        },
        {
          "duration": 0.125,
          "durationTicks": 240,
          "midi": 67,
          "name": "G4",
          "ticks": 9600,
          "time": 5,
          "velocity": 1
        },
        {
          "duration": 1,
          "durationTicks": 1920,
          "midi": 50,
          "name": "D3",
          "ticks": 9600,
          "time": 5,
          "velocity": 1
        },
        {
          "duration": 0.125,
          "durationTicks": 240,
          "midi": 67,
          "name": "G4",
          "ticks": 10560,
          "time": 5.5,
          "velocity": 1
        },
        {
          "duration": 0.125,
          "durationTicks": 240,
          "midi": 70,
          "name": "A#4",
          "ticks": 11520,
          "time": 6,
          "velocity": 1
        },
        {
          "duration": 1,
          "durationTicks": 1920,
          "midi": 52,
          "name": "E3",
          "ticks": 11520,
          "time": 6,
          "velocity": 1
        },
        {
          "duration": 0.125,
          "durationTicks": 240,
          "midi": 69,
          "name": "A4",
          "ticks": 11760,
          "time": 6.125,
          "velocity": 1
        },
        {
          "duration": 0.125,
          "durationTicks": 240,
          "midi": 67,
          "name": "G4",
          "ticks": 12240,
          "time": 6.375,
          "velocity": 1
        },
        {
          "duration": 0.125,
          "durationTicks": 240,
          "midi": 64,
          "name": "E4",
          "ticks": 12960,
          "time": 6.75,
          "velocity": 1
        },
        {
          "duration": 0.125,
          "durationTicks": 240,
          "midi": 70,
          "name": "A#4",
          "ticks": 13440,
          "time": 7,
          "velocity": 1
        },
        {
          "duration": 1,
          "durationTicks": 1920,
          "midi": 52,
          "name": "E3",
          "ticks": 13440,
          "time": 7,
          "velocity": 1
        },
        {
          "duration": 0.125,
          "durationTicks": 240,
          "midi": 69,
          "name": "A4",
          "ticks": 13680,
          "time": 7.125,
          "velocity": 1
        },
        {
          "duration": 0.125,
          "durationTicks": 240,
          "midi": 67,
          "name": "G4",
          "ticks": 14160,
          "time": 7.375,
          "velocity": 1
        },
        {
          "duration": 0.125,
          "durationTicks": 240,
          "midi": 62,
          "name": "D4",
          "ticks": 14880,
          "time": 7.75,
          "velocity": 1
        },
        {
          "duration": 0.125,
          "durationTicks": 240,
          "midi": 64,
          "name": "E4",
          "ticks": 15360,
          "time": 8,
          "velocity": 1
        },
        {
          "duration": 1,
          "durationTicks": 1920,
          "midi": 48,
          "name": "C3",
          "ticks": 15360,
          "time": 8,
          "velocity": 1
        },
        {
          "duration": 0.125,
          "durationTicks": 240,
          "midi": 67,
          "name": "G4",
          "ticks": 15840,
          "time": 8.25,
          "velocity": 1
        },
        {
          "duration": 0.125,
          "durationTicks": 240,
          "midi": 67,
          "name": "G4",
          "ticks": 16320,
          "time": 8.5,
          "velocity": 1
        },
        {
          "duration": 0.125,
          "durationTicks": 240,
          "midi": 69,
          "name": "A4",
          "ticks": 16800,
          "time": 8.75,
          "velocity": 1
        },
        {
          "duration": 0.125,
          "durationTicks": 240,
          "midi": 71,
          "name": "B4",
          "ticks": 17280,
          "time": 9,
          "velocity": 1
        },
        {
          "duration": 1,
          "durationTicks": 1920,
          "midi": 50,
          "name": "D3",
          "ticks": 17280,
          "time": 9,
          "velocity": 1
        },
        {
          "duration": 0.125,
          "durationTicks": 240,
          "midi": 69,
          "name": "A4",
          "ticks": 18000,
          "time": 9.375,
          "velocity": 1
        },
        {
          "duration": 0.125,
          "durationTicks": 240,
          "midi": 67,
          "name": "G4",
          "ticks": 18240,
          "time": 9.5,
          "velocity": 1
        },
        {
          "duration": 0.125,
          "durationTicks": 240,
          "midi": 67,
          "name": "G4",
          "ticks": 18720,
          "time": 9.75,
          "velocity": 1
        },
        {
          "duration": 0.25,
          "durationTicks": 480,
          "midi": 74,
          "name": "D5",
          "ticks": 19200,
          "time": 10,
          "velocity": 1
        },
        {
          "duration": 0.5,
          "durationTicks": 960,
          "midi": 47,
          "name": "B2",
          "ticks": 19200,
          "time": 10,
          "velocity": 1
        },
        {
          "duration": 0.125,
          "durationTicks": 240,
          "midi": 74,
          "name": "D5",
          "ticks": 19920,
          "time": 10.375,
          "velocity": 1
        },
        {
          "duration": 0.25,
          "durationTicks": 480,
          "midi": 75,
          "name": "D#5",
          "ticks": 20160,
          "time": 10.5,
          "velocity": 1
        },
        {
          "duration": 0.5,
          "durationTicks": 960,
          "midi": 51,
          "name": "D#3",
          "ticks": 20160,
          "time": 10.5,
          "velocity": 1
        },
        {
          "duration": 0.125,
          "durationTicks": 240,
          "midi": 75,
          "name": "D#5",
          "ticks": 20880,
          "time": 10.875,
          "velocity": 1
        },
        {
          "duration": 0.25,
          "durationTicks": 480,
          "midi": 76,
          "name": "E5",
          "ticks": 21120,
          "time": 11,
          "velocity": 1
        },
        {
          "duration": 0.5,
          "durationTicks": 960,
          "midi": 52,
          "name": "E3",
          "ticks": 21120,
          "time": 11,
          "velocity": 1
        },
        {
          "duration": 0.125,
          "durationTicks": 240,
          "midi": 71,
          "name": "B4",
          "ticks": 21600,
          "time": 11.25,
          "velocity": 1
        },
        {
          "duration": 0.125,
          "durationTicks": 240,
          "midi": 69,
          "name": "A4",
          "ticks": 22080,
          "time": 11.5,
          "velocity": 1
        },
        {
          "duration": 0.5,
          "durationTicks": 960,
          "midi": 50,
          "name": "D3",
          "ticks": 22080,
          "time": 11.5,
          "velocity": 1
        },
        {
          "duration": 0.125,
          "durationTicks": 240,
          "midi": 67,
          "name": "G4",
          "ticks": 22560,
          "time": 11.75,
          "velocity": 1
        },
        {
          "duration": 0.125,
          "durationTicks": 240,
          "midi": 70,
          "name": "A#4",
          "ticks": 23040,
          "time": 12,
          "velocity": 1
        },
        {
          "duration": 1,
          "durationTicks": 1920,
          "midi": 45,
          "name": "A2",
          "ticks": 23040,
          "time": 12,
          "velocity": 1
        },
        {
          "duration": 0.125,
          "durationTicks": 240,
          "midi": 69,
          "name": "A4",
          "ticks": 23280,
          "time": 12.125,
          "velocity": 1
        },
        {
          "duration": 0.125,
          "durationTicks": 240,
          "midi": 67,
          "name": "G4",
          "ticks": 23760,
          "time": 12.375,
          "velocity": 1
        },
        {
          "duration": 0.125,
          "durationTicks": 240,
          "midi": 64,
          "name": "E4",
          "ticks": 24480,
          "time": 12.75,
          "velocity": 1
        },
        {
          "duration": 0.125,
          "durationTicks": 240,
          "midi": 70,
          "name": "A#4",
          "ticks": 24960,
          "time": 13,
          "velocity": 1
        },
        {
          "duration": 1,
          "durationTicks": 1920,
          "midi": 50,
          "name": "D3",
          "ticks": 24960,
          "time": 13,
          "velocity": 1
        },
        {
          "duration": 0.125,
          "durationTicks": 240,
          "midi": 69,
          "name": "A4",
          "ticks": 25200,
          "time": 13.125,
          "velocity": 1
        },
        {
          "duration": 0.125,
          "durationTicks": 240,
          "midi": 67,
          "name": "G4",
          "ticks": 25680,
          "time": 13.375,
          "velocity": 1
        },
        {
          "duration": 0.125,
          "durationTicks": 240,
          "midi": 69,
          "name": "A4",
          "ticks": 26400,
          "time": 13.75,
          "velocity": 1
        },
        {
          "duration": 1,
          "durationTicks": 1920,
          "midi": 67,
          "name": "G4",
          "ticks": 26880,
          "time": 14,
          "velocity": 1
        },
        {
          "duration": 1,
          "durationTicks": 1920,
          "midi": 55,
          "name": "G3",
          "ticks": 26880,
          "time": 14,
          "velocity": 1
        },
        {
          "duration": 0.125,
          "durationTicks": 240,
          "midi": 64,
          "name": "E4",
          "ticks": 30720,
          "time": 16,
          "velocity": 1
        },
        {
          "duration": 1,
          "durationTicks": 1920,
          "midi": 48,
          "name": "C3",
          "ticks": 30720,
          "time": 16,
          "velocity": 1
        },
        {
          "duration": 0.5,
          "durationTicks": 960,
          "midi": 36,
          "name": "C2",
          "ticks": 30720,
          "time": 16,
          "velocity": 1
        },
        {
          "duration": 0.125,
          "durationTicks": 240,
          "midi": 67,
          "name": "G4",
          "ticks": 31200,
          "time": 16.25,
          "velocity": 1
        },
        {
          "duration": 0.125,
          "durationTicks": 240,
          "midi": 23,
          "name": "B0",
          "ticks": 31440,
          "time": 16.375,
          "velocity": 1
        },
        {
          "duration": 0.125,
          "durationTicks": 240,
          "midi": 22,
          "name": "A#0",
          "ticks": 31440,
          "time": 16.375,
          "velocity": 1
        },
        {
          "duration": 0.125,
          "durationTicks": 240,
          "midi": 21,
          "name": "A0",
          "ticks": 31440,
          "time": 16.375,
          "velocity": 1
        },
        {
          "duration": 0.125,
          "durationTicks": 240,
          "midi": 20,
          "name": "G#0",
          "ticks": 31440,
          "time": 16.375,
          "velocity": 1
        },
        {
          "duration": 0.125,
          "durationTicks": 240,
          "midi": 19,
          "name": "G0",
          "ticks": 31440,
          "time": 16.375,
          "velocity": 1
        },
        {
          "duration": 0.125,
          "durationTicks": 240,
          "midi": 18,
          "name": "F#0",
          "ticks": 31440,
          "time": 16.375,
          "velocity": 1
        },
        {
          "duration": 0.125,
          "durationTicks": 240,
          "midi": 17,
          "name": "F0",
          "ticks": 31440,
          "time": 16.375,
          "velocity": 1
        },
        {
          "duration": 0.125,
          "durationTicks": 240,
          "midi": 67,
          "name": "G4",
          "ticks": 31680,
          "time": 16.5,
          "velocity": 1
        },
        {
          "duration": 0.125,
          "durationTicks": 240,
          "midi": 21,
          "name": "A0",
          "ticks": 31680,
          "time": 16.5,
          "velocity": 1
        },
        {
          "duration": 0.125,
          "durationTicks": 240,
          "midi": 23,
          "name": "B0",
          "ticks": 31680,
          "time": 16.5,
          "velocity": 1
        },
        {
          "duration": 0.125,
          "durationTicks": 240,
          "midi": 22,
          "name": "A#0",
          "ticks": 31680,
          "time": 16.5,
          "velocity": 1
        },
        {
          "duration": 0.125,
          "durationTicks": 240,
          "midi": 20,
          "name": "G#0",
          "ticks": 31680,
          "time": 16.5,
          "velocity": 1
        },
        {
          "duration": 0.125,
          "durationTicks": 240,
          "midi": 19,
          "name": "G0",
          "ticks": 31680,
          "time": 16.5,
          "velocity": 1
        },
        {
          "duration": 0.125,
          "durationTicks": 240,
          "midi": 18,
          "name": "F#0",
          "ticks": 31680,
          "time": 16.5,
          "velocity": 1
        },
        {
          "duration": 0.125,
          "durationTicks": 240,
          "midi": 17,
          "name": "F0",
          "ticks": 31680,
          "time": 16.5,
          "velocity": 1
        },
        {
          "duration": 0.125,
          "durationTicks": 240,
          "midi": 24,
          "name": "C1",
          "ticks": 31680,
          "time": 16.5,
          "velocity": 1
        },
        {
          "duration": 0.125,
          "durationTicks": 240,
          "midi": 25,
          "name": "C#1",
          "ticks": 31680,
          "time": 16.5,
          "velocity": 1
        },
        {
          "duration": 0.125,
          "durationTicks": 240,
          "midi": 16,
          "name": "E0",
          "ticks": 31680,
          "time": 16.5,
          "velocity": 1
        },
        {
          "duration": 0.125,
          "durationTicks": 240,
          "midi": 15,
          "name": "D#0",
          "ticks": 31680,
          "time": 16.5,
          "velocity": 1
        },
        {
          "duration": 0.125,
          "durationTicks": 240,
          "midi": 36,
          "name": "C2",
          "ticks": 31920,
          "time": 16.625,
          "velocity": 1
        },
        {
          "duration": 0.125,
          "durationTicks": 240,
          "midi": 23,
          "name": "B0",
          "ticks": 31920,
          "time": 16.625,
          "velocity": 1
        },
        {
          "duration": 0.125,
          "durationTicks": 240,
          "midi": 22,
          "name": "A#0",
          "ticks": 31920,
          "time": 16.625,
          "velocity": 1
        },
        {
          "duration": 0.125,
          "durationTicks": 240,
          "midi": 17,
          "name": "F0",
          "ticks": 31920,
          "time": 16.625,
          "velocity": 1
        },
        {
          "duration": 0.125,
          "durationTicks": 240,
          "midi": 18,
          "name": "F#0",
          "ticks": 31920,
          "time": 16.625,
          "velocity": 1
        },
        {
          "duration": 0.125,
          "durationTicks": 240,
          "midi": 19,
          "name": "G0",
          "ticks": 31920,
          "time": 16.625,
          "velocity": 1
        },
        {
          "duration": 0.125,
          "durationTicks": 240,
          "midi": 20,
          "name": "G#0",
          "ticks": 31920,
          "time": 16.625,
          "velocity": 1
        },
        {
          "duration": 0.125,
          "durationTicks": 240,
          "midi": 21,
          "name": "A0",
          "ticks": 31920,
          "time": 16.625,
          "velocity": 1
        },
        {
          "duration": 0.125,
          "durationTicks": 240,
          "midi": 69,
          "name": "A4",
          "ticks": 32160,
          "time": 16.75,
          "velocity": 1
        },
        {
          "duration": 0.125,
          "durationTicks": 240,
          "midi": 36,
          "name": "C2",
          "ticks": 32400,
          "time": 16.875,
          "velocity": 1
        },
        {
          "duration": 0.125,
          "durationTicks": 240,
          "midi": 67,
          "name": "G4",
          "ticks": 32640,
          "time": 17,
          "velocity": 1
        },
        {
          "duration": 1,
          "durationTicks": 1920,
          "midi": 50,
          "name": "D3",
          "ticks": 32640,
          "time": 17,
          "velocity": 1
        },
        {
          "duration": 0.5,
          "durationTicks": 960,
          "midi": 38,
          "name": "D2",
          "ticks": 32640,
          "time": 17,
          "velocity": 1
        },
        {
          "duration": 0.125,
          "durationTicks": 240,
          "midi": 23,
          "name": "B0",
          "ticks": 33360,
          "time": 17.375,
          "velocity": 1
        },
        {
          "duration": 0.125,
          "durationTicks": 240,
          "midi": 22,
          "name": "A#0",
          "ticks": 33360,
          "time": 17.375,
          "velocity": 1
        },
        {
          "duration": 0.125,
          "durationTicks": 240,
          "midi": 21,
          "name": "A0",
          "ticks": 33360,
          "time": 17.375,
          "velocity": 1
        },
        {
          "duration": 0.125,
          "durationTicks": 240,
          "midi": 20,
          "name": "G#0",
          "ticks": 33360,
          "time": 17.375,
          "velocity": 1
        },
        {
          "duration": 0.125,
          "durationTicks": 240,
          "midi": 19,
          "name": "G0",
          "ticks": 33360,
          "time": 17.375,
          "velocity": 1
        },
        {
          "duration": 0.125,
          "durationTicks": 240,
          "midi": 18,
          "name": "F#0",
          "ticks": 33360,
          "time": 17.375,
          "velocity": 1
        },
        {
          "duration": 0.125,
          "durationTicks": 240,
          "midi": 67,
          "name": "G4",
          "ticks": 33600,
          "time": 17.5,
          "velocity": 1
        },
        {
          "duration": 0.125,
          "durationTicks": 240,
          "midi": 21,
          "name": "A0",
          "ticks": 33600,
          "time": 17.5,
          "velocity": 1
        },
        {
          "duration": 0.125,
          "durationTicks": 240,
          "midi": 23,
          "name": "B0",
          "ticks": 33600,
          "time": 17.5,
          "velocity": 1
        },
        {
          "duration": 0.125,
          "durationTicks": 240,
          "midi": 22,
          "name": "A#0",
          "ticks": 33600,
          "time": 17.5,
          "velocity": 1
        },
        {
          "duration": 0.125,
          "durationTicks": 240,
          "midi": 20,
          "name": "G#0",
          "ticks": 33600,
          "time": 17.5,
          "velocity": 1
        },
        {
          "duration": 0.125,
          "durationTicks": 240,
          "midi": 19,
          "name": "G0",
          "ticks": 33600,
          "time": 17.5,
          "velocity": 1
        },
        {
          "duration": 0.125,
          "durationTicks": 240,
          "midi": 18,
          "name": "F#0",
          "ticks": 33600,
          "time": 17.5,
          "velocity": 1
        },
        {
          "duration": 0.125,
          "durationTicks": 240,
          "midi": 17,
          "name": "F0",
          "ticks": 33600,
          "time": 17.5,
          "velocity": 1
        },
        {
          "duration": 0.125,
          "durationTicks": 240,
          "midi": 24,
          "name": "C1",
          "ticks": 33600,
          "time": 17.5,
          "velocity": 1
        },
        {
          "duration": 0.125,
          "durationTicks": 240,
          "midi": 25,
          "name": "C#1",
          "ticks": 33600,
          "time": 17.5,
          "velocity": 1
        },
        {
          "duration": 0.125,
          "durationTicks": 240,
          "midi": 16,
          "name": "E0",
          "ticks": 33600,
          "time": 17.5,
          "velocity": 1
        },
        {
          "duration": 0.125,
          "durationTicks": 240,
          "midi": 38,
          "name": "D2",
          "ticks": 33840,
          "time": 17.625,
          "velocity": 1
        },
        {
          "duration": 0.125,
          "durationTicks": 240,
          "midi": 18,
          "name": "F#0",
          "ticks": 33840,
          "time": 17.625,
          "velocity": 1
        },
        {
          "duration": 0.125,
          "durationTicks": 240,
          "midi": 20,
          "name": "G#0",
          "ticks": 33840,
          "time": 17.625,
          "velocity": 1
        },
        {
          "duration": 0.125,
          "durationTicks": 240,
          "midi": 19,
          "name": "G0",
          "ticks": 33840,
          "time": 17.625,
          "velocity": 1
        },
        {
          "duration": 0.125,
          "durationTicks": 240,
          "midi": 21,
          "name": "A0",
          "ticks": 33840,
          "time": 17.625,
          "velocity": 1
        },
        {
          "duration": 0.125,
          "durationTicks": 240,
          "midi": 22,
          "name": "A#0",
          "ticks": 33840,
          "time": 17.625,
          "velocity": 1
        },
        {
          "duration": 0.125,
          "durationTicks": 240,
          "midi": 23,
          "name": "B0",
          "ticks": 33840,
          "time": 17.625,
          "velocity": 1
        },
        {
          "duration": 0.125,
          "durationTicks": 240,
          "midi": 38,
          "name": "D2",
          "ticks": 34320,
          "time": 17.875,
          "velocity": 1
        },
        {
          "duration": 0.125,
          "durationTicks": 240,
          "midi": 74,
          "name": "D5",
          "ticks": 34560,
          "time": 18,
          "velocity": 1
        },
        {
          "duration": 1,
          "durationTicks": 1920,
          "midi": 55,
          "name": "G3",
          "ticks": 34560,
          "time": 18,
          "velocity": 1
        },
        {
          "duration": 0.5,
          "durationTicks": 960,
          "midi": 43,
          "name": "G2",
          "ticks": 34560,
          "time": 18,
          "velocity": 1
        },
        {
          "duration": 0.125,
          "durationTicks": 240,
          "midi": 71,
          "name": "B4",
          "ticks": 35040,
          "time": 18.25,
          "velocity": 1
        },
        {
          "duration": 0.125,
          "durationTicks": 240,
          "midi": 23,
          "name": "B0",
          "ticks": 35280,
          "time": 18.375,
          "velocity": 1
        },
        {
          "duration": 0.125,
          "durationTicks": 240,
          "midi": 22,
          "name": "A#0",
          "ticks": 35280,
          "time": 18.375,
          "velocity": 1
        },
        {
          "duration": 0.125,
          "durationTicks": 240,
          "midi": 21,
          "name": "A0",
          "ticks": 35280,
          "time": 18.375,
          "velocity": 1
        },
        {
          "duration": 0.125,
          "durationTicks": 240,
          "midi": 20,
          "name": "G#0",
          "ticks": 35280,
          "time": 18.375,
          "velocity": 1
        },
        {
          "duration": 0.125,
          "durationTicks": 240,
          "midi": 19,
          "name": "G0",
          "ticks": 35280,
          "time": 18.375,
          "velocity": 1
        },
        {
          "duration": 0.125,
          "durationTicks": 240,
          "midi": 18,
          "name": "F#0",
          "ticks": 35280,
          "time": 18.375,
          "velocity": 1
        },
        {
          "duration": 0.125,
          "durationTicks": 240,
          "midi": 69,
          "name": "A4",
          "ticks": 35520,
          "time": 18.5,
          "velocity": 1
        },
        {
          "duration": 0.125,
          "durationTicks": 240,
          "midi": 21,
          "name": "A0",
          "ticks": 35520,
          "time": 18.5,
          "velocity": 1
        },
        {
          "duration": 0.125,
          "durationTicks": 240,
          "midi": 22,
          "name": "A#0",
          "ticks": 35520,
          "time": 18.5,
          "velocity": 1
        },
        {
          "duration": 0.125,
          "durationTicks": 240,
          "midi": 25,
          "name": "C#1",
          "ticks": 35520,
          "time": 18.5,
          "velocity": 1
        },
        {
          "duration": 0.125,
          "durationTicks": 240,
          "midi": 24,
          "name": "C1",
          "ticks": 35520,
          "time": 18.5,
          "velocity": 1
        },
        {
          "duration": 0.125,
          "durationTicks": 240,
          "midi": 23,
          "name": "B0",
          "ticks": 35520,
          "time": 18.5,
          "velocity": 1
        },
        {
          "duration": 0.125,
          "durationTicks": 240,
          "midi": 17,
          "name": "F0",
          "ticks": 35520,
          "time": 18.5,
          "velocity": 1
        },
        {
          "duration": 0.125,
          "durationTicks": 240,
          "midi": 16,
          "name": "E0",
          "ticks": 35520,
          "time": 18.5,
          "velocity": 1
        },
        {
          "duration": 0.125,
          "durationTicks": 240,
          "midi": 18,
          "name": "F#0",
          "ticks": 35520,
          "time": 18.5,
          "velocity": 1
        },
        {
          "duration": 0.125,
          "durationTicks": 240,
          "midi": 20,
          "name": "G#0",
          "ticks": 35520,
          "time": 18.5,
          "velocity": 1
        },
        {
          "duration": 0.125,
          "durationTicks": 240,
          "midi": 19,
          "name": "G0",
          "ticks": 35520,
          "time": 18.5,
          "velocity": 1
        },
        {
          "duration": 0.125,
          "durationTicks": 240,
          "midi": 43,
          "name": "G2",
          "ticks": 35760,
          "time": 18.625,
          "velocity": 1
        },
        {
          "duration": 0.125,
          "durationTicks": 240,
          "midi": 18,
          "name": "F#0",
          "ticks": 35760,
          "time": 18.625,
          "velocity": 1
        },
        {
          "duration": 0.125,
          "durationTicks": 240,
          "midi": 19,
          "name": "G0",
          "ticks": 35760,
          "time": 18.625,
          "velocity": 1
        },
        {
          "duration": 0.125,
          "durationTicks": 240,
          "midi": 20,
          "name": "G#0",
          "ticks": 35760,
          "time": 18.625,
          "velocity": 1
        },
        {
          "duration": 0.125,
          "durationTicks": 240,
          "midi": 21,
          "name": "A0",
          "ticks": 35760,
          "time": 18.625,
          "velocity": 1
        },
        {
          "duration": 0.125,
          "durationTicks": 240,
          "midi": 22,
          "name": "A#0",
          "ticks": 35760,
          "time": 18.625,
          "velocity": 1
        },
        {
          "duration": 0.125,
          "durationTicks": 240,
          "midi": 23,
          "name": "B0",
          "ticks": 35760,
          "time": 18.625,
          "velocity": 1
        },
        {
          "duration": 0.125,
          "durationTicks": 240,
          "midi": 71,
          "name": "B4",
          "ticks": 36000,
          "time": 18.75,
          "velocity": 1
        },
        {
          "duration": 0.125,
          "durationTicks": 240,
          "midi": 43,
          "name": "G2",
          "ticks": 36240,
          "time": 18.875,
          "velocity": 1
        },
        {
          "duration": 0.125,
          "durationTicks": 240,
          "midi": 67,
          "name": "G4",
          "ticks": 36480,
          "time": 19,
          "velocity": 1
        },
        {
          "duration": 1,
          "durationTicks": 1920,
          "midi": 52,
          "name": "E3",
          "ticks": 36480,
          "time": 19,
          "velocity": 1
        },
        {
          "duration": 0.5,
          "durationTicks": 960,
          "midi": 40,
          "name": "E2",
          "ticks": 36480,
          "time": 19,
          "velocity": 1
        },
        {
          "duration": 0.125,
          "durationTicks": 240,
          "midi": 79,
          "name": "G5",
          "ticks": 36960,
          "time": 19.25,
          "velocity": 1
        },
        {
          "duration": 0.125,
          "durationTicks": 240,
          "midi": 79,
          "name": "G5",
          "ticks": 37200,
          "time": 19.375,
          "velocity": 1
        },
        {
          "duration": 0.125,
          "durationTicks": 240,
          "midi": 18,
          "name": "F#0",
          "ticks": 37200,
          "time": 19.375,
          "velocity": 1
        },
        {
          "duration": 0.125,
          "durationTicks": 240,
          "midi": 19,
          "name": "G0",
          "ticks": 37200,
          "time": 19.375,
          "velocity": 1
        },
        {
          "duration": 0.125,
          "durationTicks": 240,
          "midi": 21,
          "name": "A0",
          "ticks": 37200,
          "time": 19.375,
          "velocity": 1
        },
        {
          "duration": 0.125,
          "durationTicks": 240,
          "midi": 23,
          "name": "B0",
          "ticks": 37200,
          "time": 19.375,
          "velocity": 1
        },
        {
          "duration": 0.125,
          "durationTicks": 240,
          "midi": 22,
          "name": "A#0",
          "ticks": 37200,
          "time": 19.375,
          "velocity": 1
        },
        {
          "duration": 0.125,
          "durationTicks": 240,
          "midi": 20,
          "name": "G#0",
          "ticks": 37200,
          "time": 19.375,
          "velocity": 1
        },
        {
          "duration": 0.125,
          "durationTicks": 240,
          "midi": 79,
          "name": "G5",
          "ticks": 37440,
          "time": 19.5,
          "velocity": 1
        },
        {
          "duration": 0.125,
          "durationTicks": 240,
          "midi": 21,
          "name": "A0",
          "ticks": 37440,
          "time": 19.5,
          "velocity": 1
        },
        {
          "duration": 0.125,
          "durationTicks": 240,
          "midi": 23,
          "name": "B0",
          "ticks": 37440,
          "time": 19.5,
          "velocity": 1
        },
        {
          "duration": 0.125,
          "durationTicks": 240,
          "midi": 22,
          "name": "A#0",
          "ticks": 37440,
          "time": 19.5,
          "velocity": 1
        },
        {
          "duration": 0.125,
          "durationTicks": 240,
          "midi": 18,
          "name": "F#0",
          "ticks": 37440,
          "time": 19.5,
          "velocity": 1
        },
        {
          "duration": 0.125,
          "durationTicks": 240,
          "midi": 17,
          "name": "F0",
          "ticks": 37440,
          "time": 19.5,
          "velocity": 1
        },
        {
          "duration": 0.125,
          "durationTicks": 240,
          "midi": 16,
          "name": "E0",
          "ticks": 37440,
          "time": 19.5,
          "velocity": 1
        },
        {
          "duration": 0.125,
          "durationTicks": 240,
          "midi": 19,
          "name": "G0",
          "ticks": 37440,
          "time": 19.5,
          "velocity": 1
        },
        {
          "duration": 0.125,
          "durationTicks": 240,
          "midi": 20,
          "name": "G#0",
          "ticks": 37440,
          "time": 19.5,
          "velocity": 1
        },
        {
          "duration": 0.125,
          "durationTicks": 240,
          "midi": 25,
          "name": "C#1",
          "ticks": 37440,
          "time": 19.5,
          "velocity": 1
        },
        {
          "duration": 0.125,
          "durationTicks": 240,
          "midi": 24,
          "name": "C1",
          "ticks": 37440,
          "time": 19.5,
          "velocity": 1
        },
        {
          "duration": 0.125,
          "durationTicks": 240,
          "midi": 40,
          "name": "E2",
          "ticks": 37680,
          "time": 19.625,
          "velocity": 1
        },
        {
          "duration": 0.125,
          "durationTicks": 240,
          "midi": 18,
          "name": "F#0",
          "ticks": 37680,
          "time": 19.625,
          "velocity": 1
        },
        {
          "duration": 0.125,
          "durationTicks": 240,
          "midi": 19,
          "name": "G0",
          "ticks": 37680,
          "time": 19.625,
          "velocity": 1
        },
        {
          "duration": 0.125,
          "durationTicks": 240,
          "midi": 20,
          "name": "G#0",
          "ticks": 37680,
          "time": 19.625,
          "velocity": 1
        },
        {
          "duration": 0.125,
          "durationTicks": 240,
          "midi": 21,
          "name": "A0",
          "ticks": 37680,
          "time": 19.625,
          "velocity": 1
        },
        {
          "duration": 0.125,
          "durationTicks": 240,
          "midi": 23,
          "name": "B0",
          "ticks": 37680,
          "time": 19.625,
          "velocity": 1
        },
        {
          "duration": 0.125,
          "durationTicks": 240,
          "midi": 22,
          "name": "A#0",
          "ticks": 37680,
          "time": 19.625,
          "velocity": 1
        },
        {
          "duration": 0.125,
          "durationTicks": 240,
          "midi": 79,
          "name": "G5",
          "ticks": 37920,
          "time": 19.75,
          "velocity": 1
        },
        {
          "duration": 0.125,
          "durationTicks": 240,
          "midi": 40,
          "name": "E2",
          "ticks": 38160,
          "time": 19.875,
          "velocity": 1
        },
        {
          "duration": 0.125,
          "durationTicks": 240,
          "midi": 64,
          "name": "E4",
          "ticks": 38400,
          "time": 20,
          "velocity": 1
        },
        {
          "duration": 1,
          "durationTicks": 1920,
          "midi": 48,
          "name": "C3",
          "ticks": 38400,
          "time": 20,
          "velocity": 1
        },
        {
          "duration": 0.5,
          "durationTicks": 960,
          "midi": 36,
          "name": "C2",
          "ticks": 38400,
          "time": 20,
          "velocity": 1
        },
        {
          "duration": 0.125,
          "durationTicks": 240,
          "midi": 67,
          "name": "G4",
          "ticks": 38880,
          "time": 20.25,
          "velocity": 1
        },
        {
          "duration": 0.125,
          "durationTicks": 240,
          "midi": 23,
          "name": "B0",
          "ticks": 39120,
          "time": 20.375,
          "velocity": 1
        },
        {
          "duration": 0.125,
          "durationTicks": 240,
          "midi": 22,
          "name": "A#0",
          "ticks": 39120,
          "time": 20.375,
          "velocity": 1
        },
        {
          "duration": 0.125,
          "durationTicks": 240,
          "midi": 21,
          "name": "A0",
          "ticks": 39120,
          "time": 20.375,
          "velocity": 1
        },
        {
          "duration": 0.125,
          "durationTicks": 240,
          "midi": 20,
          "name": "G#0",
          "ticks": 39120,
          "time": 20.375,
          "velocity": 1
        },
        {
          "duration": 0.125,
          "durationTicks": 240,
          "midi": 19,
          "name": "G0",
          "ticks": 39120,
          "time": 20.375,
          "velocity": 1
        },
        {
          "duration": 0.125,
          "durationTicks": 240,
          "midi": 18,
          "name": "F#0",
          "ticks": 39120,
          "time": 20.375,
          "velocity": 1
        },
        {
          "duration": 0.125,
          "durationTicks": 240,
          "midi": 67,
          "name": "G4",
          "ticks": 39360,
          "time": 20.5,
          "velocity": 1
        },
        {
          "duration": 0.125,
          "durationTicks": 240,
          "midi": 21,
          "name": "A0",
          "ticks": 39360,
          "time": 20.5,
          "velocity": 1
        },
        {
          "duration": 0.125,
          "durationTicks": 240,
          "midi": 24,
          "name": "C1",
          "ticks": 39360,
          "time": 20.5,
          "velocity": 1
        },
        {
          "duration": 0.125,
          "durationTicks": 240,
          "midi": 25,
          "name": "C#1",
          "ticks": 39360,
          "time": 20.5,
          "velocity": 1
        },
        {
          "duration": 0.125,
          "durationTicks": 240,
          "midi": 22,
          "name": "A#0",
          "ticks": 39360,
          "time": 20.5,
          "velocity": 1
        },
        {
          "duration": 0.125,
          "durationTicks": 240,
          "midi": 23,
          "name": "B0",
          "ticks": 39360,
          "time": 20.5,
          "velocity": 1
        },
        {
          "duration": 0.125,
          "durationTicks": 240,
          "midi": 18,
          "name": "F#0",
          "ticks": 39360,
          "time": 20.5,
          "velocity": 1
        },
        {
          "duration": 0.125,
          "durationTicks": 240,
          "midi": 17,
          "name": "F0",
          "ticks": 39360,
          "time": 20.5,
          "velocity": 1
        },
        {
          "duration": 0.125,
          "durationTicks": 240,
          "midi": 19,
          "name": "G0",
          "ticks": 39360,
          "time": 20.5,
          "velocity": 1
        },
        {
          "duration": 0.125,
          "durationTicks": 240,
          "midi": 20,
          "name": "G#0",
          "ticks": 39360,
          "time": 20.5,
          "velocity": 1
        },
        {
          "duration": 0.125,
          "durationTicks": 240,
          "midi": 16,
          "name": "E0",
          "ticks": 39360,
          "time": 20.5,
          "velocity": 1
        },
        {
          "duration": 0.125,
          "durationTicks": 240,
          "midi": 36,
          "name": "C2",
          "ticks": 39600,
          "time": 20.625,
          "velocity": 1
        },
        {
          "duration": 0.125,
          "durationTicks": 240,
          "midi": 23,
          "name": "B0",
          "ticks": 39600,
          "time": 20.625,
          "velocity": 1
        },
        {
          "duration": 0.125,
          "durationTicks": 240,
          "midi": 22,
          "name": "A#0",
          "ticks": 39600,
          "time": 20.625,
          "velocity": 1
        },
        {
          "duration": 0.125,
          "durationTicks": 240,
          "midi": 21,
          "name": "A0",
          "ticks": 39600,
          "time": 20.625,
          "velocity": 1
        },
        {
          "duration": 0.125,
          "durationTicks": 240,
          "midi": 20,
          "name": "G#0",
          "ticks": 39600,
          "time": 20.625,
          "velocity": 1
        },
        {
          "duration": 0.125,
          "durationTicks": 240,
          "midi": 19,
          "name": "G0",
          "ticks": 39600,
          "time": 20.625,
          "velocity": 1
        },
        {
          "duration": 0.125,
          "durationTicks": 240,
          "midi": 18,
          "name": "F#0",
          "ticks": 39600,
          "time": 20.625,
          "velocity": 1
        },
        {
          "duration": 0.125,
          "durationTicks": 240,
          "midi": 69,
          "name": "A4",
          "ticks": 39840,
          "time": 20.75,
          "velocity": 1
        },
        {
          "duration": 0.125,
          "durationTicks": 240,
          "midi": 36,
          "name": "C2",
          "ticks": 40080,
          "time": 20.875,
          "velocity": 1
        },
        {
          "duration": 0.125,
          "durationTicks": 240,
          "midi": 67,
          "name": "G4",
          "ticks": 40320,
          "time": 21,
          "velocity": 1
        },
        {
          "duration": 1,
          "durationTicks": 1920,
          "midi": 50,
          "name": "D3",
          "ticks": 40320,
          "time": 21,
          "velocity": 1
        },
        {
          "duration": 0.5,
          "durationTicks": 960,
          "midi": 38,
          "name": "D2",
          "ticks": 40320,
          "time": 21,
          "velocity": 1
        },
        {
          "duration": 0.125,
          "durationTicks": 240,
          "midi": 23,
          "name": "B0",
          "ticks": 41040,
          "time": 21.375,
          "velocity": 1
        },
        {
          "duration": 0.125,
          "durationTicks": 240,
          "midi": 22,
          "name": "A#0",
          "ticks": 41040,
          "time": 21.375,
          "velocity": 1
        },
        {
          "duration": 0.125,
          "durationTicks": 240,
          "midi": 20,
          "name": "G#0",
          "ticks": 41040,
          "time": 21.375,
          "velocity": 1
        },
        {
          "duration": 0.125,
          "durationTicks": 240,
          "midi": 21,
          "name": "A0",
          "ticks": 41040,
          "time": 21.375,
          "velocity": 1
        },
        {
          "duration": 0.125,
          "durationTicks": 240,
          "midi": 19,
          "name": "G0",
          "ticks": 41040,
          "time": 21.375,
          "velocity": 1
        },
        {
          "duration": 0.125,
          "durationTicks": 240,
          "midi": 18,
          "name": "F#0",
          "ticks": 41040,
          "time": 21.375,
          "velocity": 1
        },
        {
          "duration": 0.125,
          "durationTicks": 240,
          "midi": 67,
          "name": "G4",
          "ticks": 41280,
          "time": 21.5,
          "velocity": 1
        },
        {
          "duration": 0.125,
          "durationTicks": 240,
          "midi": 21,
          "name": "A0",
          "ticks": 41280,
          "time": 21.5,
          "velocity": 1
        },
        {
          "duration": 0.125,
          "durationTicks": 240,
          "midi": 25,
          "name": "C#1",
          "ticks": 41280,
          "time": 21.5,
          "velocity": 1
        },
        {
          "duration": 0.125,
          "durationTicks": 240,
          "midi": 24,
          "name": "C1",
          "ticks": 41280,
          "time": 21.5,
          "velocity": 1
        },
        {
          "duration": 0.125,
          "durationTicks": 240,
          "midi": 23,
          "name": "B0",
          "ticks": 41280,
          "time": 21.5,
          "velocity": 1
        },
        {
          "duration": 0.125,
          "durationTicks": 240,
          "midi": 22,
          "name": "A#0",
          "ticks": 41280,
          "time": 21.5,
          "velocity": 1
        },
        {
          "duration": 0.125,
          "durationTicks": 240,
          "midi": 17,
          "name": "F0",
          "ticks": 41280,
          "time": 21.5,
          "velocity": 1
        },
        {
          "duration": 0.125,
          "durationTicks": 240,
          "midi": 16,
          "name": "E0",
          "ticks": 41280,
          "time": 21.5,
          "velocity": 1
        },
        {
          "duration": 0.125,
          "durationTicks": 240,
          "midi": 19,
          "name": "G0",
          "ticks": 41280,
          "time": 21.5,
          "velocity": 1
        },
        {
          "duration": 0.125,
          "durationTicks": 240,
          "midi": 18,
          "name": "F#0",
          "ticks": 41280,
          "time": 21.5,
          "velocity": 1
        },
        {
          "duration": 0.125,
          "durationTicks": 240,
          "midi": 20,
          "name": "G#0",
          "ticks": 41280,
          "time": 21.5,
          "velocity": 1
        },
        {
          "duration": 0.125,
          "durationTicks": 240,
          "midi": 38,
          "name": "D2",
          "ticks": 41520,
          "time": 21.625,
          "velocity": 1
        },
        {
          "duration": 0.125,
          "durationTicks": 240,
          "midi": 23,
          "name": "B0",
          "ticks": 41520,
          "time": 21.625,
          "velocity": 1
        },
        {
          "duration": 0.125,
          "durationTicks": 240,
          "midi": 22,
          "name": "A#0",
          "ticks": 41520,
          "time": 21.625,
          "velocity": 1
        },
        {
          "duration": 0.125,
          "durationTicks": 240,
          "midi": 21,
          "name": "A0",
          "ticks": 41520,
          "time": 21.625,
          "velocity": 1
        },
        {
          "duration": 0.125,
          "durationTicks": 240,
          "midi": 20,
          "name": "G#0",
          "ticks": 41520,
          "time": 21.625,
          "velocity": 1
        },
        {
          "duration": 0.125,
          "durationTicks": 240,
          "midi": 19,
          "name": "G0",
          "ticks": 41520,
          "time": 21.625,
          "velocity": 1
        },
        {
          "duration": 0.125,
          "durationTicks": 240,
          "midi": 18,
          "name": "F#0",
          "ticks": 41520,
          "time": 21.625,
          "velocity": 1
        },
        {
          "duration": 0.125,
          "durationTicks": 240,
          "midi": 38,
          "name": "D2",
          "ticks": 42000,
          "time": 21.875,
          "velocity": 1
        },
        {
          "duration": 0.125,
          "durationTicks": 240,
          "midi": 70,
          "name": "A#4",
          "ticks": 42240,
          "time": 22,
          "velocity": 1
        },
        {
          "duration": 1,
          "durationTicks": 1920,
          "midi": 52,
          "name": "E3",
          "ticks": 42240,
          "time": 22,
          "velocity": 1
        },
        {
          "duration": 0.5,
          "durationTicks": 960,
          "midi": 40,
          "name": "E2",
          "ticks": 42240,
          "time": 22,
          "velocity": 1
        },
        {
          "duration": 0.125,
          "durationTicks": 240,
          "midi": 69,
          "name": "A4",
          "ticks": 42480,
          "time": 22.125,
          "velocity": 1
        },
        {
          "duration": 0.125,
          "durationTicks": 240,
          "midi": 67,
          "name": "G4",
          "ticks": 42960,
          "time": 22.375,
          "velocity": 1
        },
        {
          "duration": 0.125,
          "durationTicks": 240,
          "midi": 23,
          "name": "B0",
          "ticks": 42960,
          "time": 22.375,
          "velocity": 1
        },
        {
          "duration": 0.125,
          "durationTicks": 240,
          "midi": 22,
          "name": "A#0",
          "ticks": 42960,
          "time": 22.375,
          "velocity": 1
        },
        {
          "duration": 0.125,
          "durationTicks": 240,
          "midi": 21,
          "name": "A0",
          "ticks": 42960,
          "time": 22.375,
          "velocity": 1
        },
        {
          "duration": 0.125,
          "durationTicks": 240,
          "midi": 20,
          "name": "G#0",
          "ticks": 42960,
          "time": 22.375,
          "velocity": 1
        },
        {
          "duration": 0.125,
          "durationTicks": 240,
          "midi": 19,
          "name": "G0",
          "ticks": 42960,
          "time": 22.375,
          "velocity": 1
        },
        {
          "duration": 0.125,
          "durationTicks": 240,
          "midi": 18,
          "name": "F#0",
          "ticks": 42960,
          "time": 22.375,
          "velocity": 1
        },
        {
          "duration": 0.5,
          "durationTicks": 960,
          "midi": 39,
          "name": "D#2",
          "ticks": 43200,
          "time": 22.5,
          "velocity": 1
        },
        {
          "duration": 0.125,
          "durationTicks": 240,
          "midi": 21,
          "name": "A0",
          "ticks": 43200,
          "time": 22.5,
          "velocity": 1
        },
        {
          "duration": 0.125,
          "durationTicks": 240,
          "midi": 22,
          "name": "A#0",
          "ticks": 43200,
          "time": 22.5,
          "velocity": 1
        },
        {
          "duration": 0.125,
          "durationTicks": 240,
          "midi": 23,
          "name": "B0",
          "ticks": 43200,
          "time": 22.5,
          "velocity": 1
        },
        {
          "duration": 0.125,
          "durationTicks": 240,
          "midi": 24,
          "name": "C1",
          "ticks": 43200,
          "time": 22.5,
          "velocity": 1
        },
        {
          "duration": 0.125,
          "durationTicks": 240,
          "midi": 25,
          "name": "C#1",
          "ticks": 43200,
          "time": 22.5,
          "velocity": 1
        },
        {
          "duration": 0.125,
          "durationTicks": 240,
          "midi": 17,
          "name": "F0",
          "ticks": 43200,
          "time": 22.5,
          "velocity": 1
        },
        {
          "duration": 0.125,
          "durationTicks": 240,
          "midi": 18,
          "name": "F#0",
          "ticks": 43200,
          "time": 22.5,
          "velocity": 1
        },
        {
          "duration": 0.125,
          "durationTicks": 240,
          "midi": 16,
          "name": "E0",
          "ticks": 43200,
          "time": 22.5,
          "velocity": 1
        },
        {
          "duration": 0.125,
          "durationTicks": 240,
          "midi": 19,
          "name": "G0",
          "ticks": 43200,
          "time": 22.5,
          "velocity": 1
        },
        {
          "duration": 0.125,
          "durationTicks": 240,
          "midi": 20,
          "name": "G#0",
          "ticks": 43200,
          "time": 22.5,
          "velocity": 1
        },
        {
          "duration": 0.125,
          "durationTicks": 240,
          "midi": 23,
          "name": "B0",
          "ticks": 43440,
          "time": 22.625,
          "velocity": 1
        },
        {
          "duration": 0.125,
          "durationTicks": 240,
          "midi": 18,
          "name": "F#0",
          "ticks": 43440,
          "time": 22.625,
          "velocity": 1
        },
        {
          "duration": 0.125,
          "durationTicks": 240,
          "midi": 19,
          "name": "G0",
          "ticks": 43440,
          "time": 22.625,
          "velocity": 1
        },
        {
          "duration": 0.125,
          "durationTicks": 240,
          "midi": 20,
          "name": "G#0",
          "ticks": 43440,
          "time": 22.625,
          "velocity": 1
        },
        {
          "duration": 0.125,
          "durationTicks": 240,
          "midi": 21,
          "name": "A0",
          "ticks": 43440,
          "time": 22.625,
          "velocity": 1
        },
        {
          "duration": 0.125,
          "durationTicks": 240,
          "midi": 22,
          "name": "A#0",
          "ticks": 43440,
          "time": 22.625,
          "velocity": 1
        },
        {
          "duration": 0.125,
          "durationTicks": 240,
          "midi": 64,
          "name": "E4",
          "ticks": 43680,
          "time": 22.75,
          "velocity": 1
        },
        {
          "duration": 0.125,
          "durationTicks": 240,
          "midi": 70,
          "name": "A#4",
          "ticks": 44160,
          "time": 23,
          "velocity": 1
        },
        {
          "duration": 1,
          "durationTicks": 1920,
          "midi": 52,
          "name": "E3",
          "ticks": 44160,
          "time": 23,
          "velocity": 1
        },
        {
          "duration": 0.5,
          "durationTicks": 960,
          "midi": 38,
          "name": "D2",
          "ticks": 44160,
          "time": 23,
          "velocity": 1
        },
        {
          "duration": 0.125,
          "durationTicks": 240,
          "midi": 69,
          "name": "A4",
          "ticks": 44400,
          "time": 23.125,
          "velocity": 1
        },
        {
          "duration": 0.125,
          "durationTicks": 240,
          "midi": 67,
          "name": "G4",
          "ticks": 44880,
          "time": 23.375,
          "velocity": 1
        },
        {
          "duration": 0.125,
          "durationTicks": 240,
          "midi": 23,
          "name": "B0",
          "ticks": 44880,
          "time": 23.375,
          "velocity": 1
        },
        {
          "duration": 0.125,
          "durationTicks": 240,
          "midi": 22,
          "name": "A#0",
          "ticks": 44880,
          "time": 23.375,
          "velocity": 1
        },
        {
          "duration": 0.125,
          "durationTicks": 240,
          "midi": 21,
          "name": "A0",
          "ticks": 44880,
          "time": 23.375,
          "velocity": 1
        },
        {
          "duration": 0.125,
          "durationTicks": 240,
          "midi": 19,
          "name": "G0",
          "ticks": 44880,
          "time": 23.375,
          "velocity": 1
        },
        {
          "duration": 0.125,
          "durationTicks": 240,
          "midi": 20,
          "name": "G#0",
          "ticks": 44880,
          "time": 23.375,
          "velocity": 1
        },
        {
          "duration": 0.125,
          "durationTicks": 240,
          "midi": 18,
          "name": "F#0",
          "ticks": 44880,
          "time": 23.375,
          "velocity": 1
        },
        {
          "duration": 0.5,
          "durationTicks": 960,
          "midi": 37,
          "name": "C#2",
          "ticks": 45120,
          "time": 23.5,
          "velocity": 1
        },
        {
          "duration": 0.125,
          "durationTicks": 240,
          "midi": 21,
          "name": "A0",
          "ticks": 45120,
          "time": 23.5,
          "velocity": 1
        },
        {
          "duration": 0.125,
          "durationTicks": 240,
          "midi": 23,
          "name": "B0",
          "ticks": 45120,
          "time": 23.5,
          "velocity": 1
        },
        {
          "duration": 0.125,
          "durationTicks": 240,
          "midi": 22,
          "name": "A#0",
          "ticks": 45120,
          "time": 23.5,
          "velocity": 1
        },
        {
          "duration": 0.125,
          "durationTicks": 240,
          "midi": 24,
          "name": "C1",
          "ticks": 45120,
          "time": 23.5,
          "velocity": 1
        },
        {
          "duration": 0.125,
          "durationTicks": 240,
          "midi": 25,
          "name": "C#1",
          "ticks": 45120,
          "time": 23.5,
          "velocity": 1
        },
        {
          "duration": 0.125,
          "durationTicks": 240,
          "midi": 17,
          "name": "F0",
          "ticks": 45120,
          "time": 23.5,
          "velocity": 1
        },
        {
          "duration": 0.125,
          "durationTicks": 240,
          "midi": 16,
          "name": "E0",
          "ticks": 45120,
          "time": 23.5,
          "velocity": 1
        },
        {
          "duration": 0.125,
          "durationTicks": 240,
          "midi": 18,
          "name": "F#0",
          "ticks": 45120,
          "time": 23.5,
          "velocity": 1
        },
        {
          "duration": 0.125,
          "durationTicks": 240,
          "midi": 19,
          "name": "G0",
          "ticks": 45120,
          "time": 23.5,
          "velocity": 1
        },
        {
          "duration": 0.125,
          "durationTicks": 240,
          "midi": 20,
          "name": "G#0",
          "ticks": 45120,
          "time": 23.5,
          "velocity": 1
        },
        {
          "duration": 0.125,
          "durationTicks": 240,
          "midi": 23,
          "name": "B0",
          "ticks": 45360,
          "time": 23.625,
          "velocity": 1
        },
        {
          "duration": 0.125,
          "durationTicks": 240,
          "midi": 22,
          "name": "A#0",
          "ticks": 45360,
          "time": 23.625,
          "velocity": 1
        },
        {
          "duration": 0.125,
          "durationTicks": 240,
          "midi": 21,
          "name": "A0",
          "ticks": 45360,
          "time": 23.625,
          "velocity": 1
        },
        {
          "duration": 0.125,
          "durationTicks": 240,
          "midi": 20,
          "name": "G#0",
          "ticks": 45360,
          "time": 23.625,
          "velocity": 1
        },
        {
          "duration": 0.125,
          "durationTicks": 240,
          "midi": 19,
          "name": "G0",
          "ticks": 45360,
          "time": 23.625,
          "velocity": 1
        },
        {
          "duration": 0.125,
          "durationTicks": 240,
          "midi": 18,
          "name": "F#0",
          "ticks": 45360,
          "time": 23.625,
          "velocity": 1
        },
        {
          "duration": 0.125,
          "durationTicks": 240,
          "midi": 62,
          "name": "D4",
          "ticks": 45600,
          "time": 23.75,
          "velocity": 1
        },
        {
          "duration": 0.125,
          "durationTicks": 240,
          "midi": 64,
          "name": "E4",
          "ticks": 46080,
          "time": 24,
          "velocity": 1
        },
        {
          "duration": 1,
          "durationTicks": 1920,
          "midi": 48,
          "name": "C3",
          "ticks": 46080,
          "time": 24,
          "velocity": 1
        },
        {
          "duration": 0.5,
          "durationTicks": 960,
          "midi": 36,
          "name": "C2",
          "ticks": 46080,
          "time": 24,
          "velocity": 1
        },
        {
          "duration": 0.125,
          "durationTicks": 240,
          "midi": 67,
          "name": "G4",
          "ticks": 46560,
          "time": 24.25,
          "velocity": 1
        },
        {
          "duration": 0.125,
          "durationTicks": 240,
          "midi": 23,
          "name": "B0",
          "ticks": 46800,
          "time": 24.375,
          "velocity": 1
        },
        {
          "duration": 0.125,
          "durationTicks": 240,
          "midi": 22,
          "name": "A#0",
          "ticks": 46800,
          "time": 24.375,
          "velocity": 1
        },
        {
          "duration": 0.125,
          "durationTicks": 240,
          "midi": 21,
          "name": "A0",
          "ticks": 46800,
          "time": 24.375,
          "velocity": 1
        },
        {
          "duration": 0.125,
          "durationTicks": 240,
          "midi": 20,
          "name": "G#0",
          "ticks": 46800,
          "time": 24.375,
          "velocity": 1
        },
        {
          "duration": 0.125,
          "durationTicks": 240,
          "midi": 19,
          "name": "G0",
          "ticks": 46800,
          "time": 24.375,
          "velocity": 1
        },
        {
          "duration": 0.125,
          "durationTicks": 240,
          "midi": 18,
          "name": "F#0",
          "ticks": 46800,
          "time": 24.375,
          "velocity": 1
        },
        {
          "duration": 0.125,
          "durationTicks": 240,
          "midi": 67,
          "name": "G4",
          "ticks": 47040,
          "time": 24.5,
          "velocity": 1
        },
        {
          "duration": 0.125,
          "durationTicks": 240,
          "midi": 21,
          "name": "A0",
          "ticks": 47040,
          "time": 24.5,
          "velocity": 1
        },
        {
          "duration": 0.125,
          "durationTicks": 240,
          "midi": 22,
          "name": "A#0",
          "ticks": 47040,
          "time": 24.5,
          "velocity": 1
        },
        {
          "duration": 0.125,
          "durationTicks": 240,
          "midi": 23,
          "name": "B0",
          "ticks": 47040,
          "time": 24.5,
          "velocity": 1
        },
        {
          "duration": 0.125,
          "durationTicks": 240,
          "midi": 24,
          "name": "C1",
          "ticks": 47040,
          "time": 24.5,
          "velocity": 1
        },
        {
          "duration": 0.125,
          "durationTicks": 240,
          "midi": 25,
          "name": "C#1",
          "ticks": 47040,
          "time": 24.5,
          "velocity": 1
        },
        {
          "duration": 0.125,
          "durationTicks": 240,
          "midi": 17,
          "name": "F0",
          "ticks": 47040,
          "time": 24.5,
          "velocity": 1
        },
        {
          "duration": 0.125,
          "durationTicks": 240,
          "midi": 16,
          "name": "E0",
          "ticks": 47040,
          "time": 24.5,
          "velocity": 1
        },
        {
          "duration": 0.125,
          "durationTicks": 240,
          "midi": 18,
          "name": "F#0",
          "ticks": 47040,
          "time": 24.5,
          "velocity": 1
        },
        {
          "duration": 0.125,
          "durationTicks": 240,
          "midi": 19,
          "name": "G0",
          "ticks": 47040,
          "time": 24.5,
          "velocity": 1
        },
        {
          "duration": 0.125,
          "durationTicks": 240,
          "midi": 20,
          "name": "G#0",
          "ticks": 47040,
          "time": 24.5,
          "velocity": 1
        },
        {
          "duration": 0.125,
          "durationTicks": 240,
          "midi": 36,
          "name": "C2",
          "ticks": 47280,
          "time": 24.625,
          "velocity": 1
        },
        {
          "duration": 0.125,
          "durationTicks": 240,
          "midi": 23,
          "name": "B0",
          "ticks": 47280,
          "time": 24.625,
          "velocity": 1
        },
        {
          "duration": 0.125,
          "durationTicks": 240,
          "midi": 22,
          "name": "A#0",
          "ticks": 47280,
          "time": 24.625,
          "velocity": 1
        },
        {
          "duration": 0.125,
          "durationTicks": 240,
          "midi": 21,
          "name": "A0",
          "ticks": 47280,
          "time": 24.625,
          "velocity": 1
        },
        {
          "duration": 0.125,
          "durationTicks": 240,
          "midi": 20,
          "name": "G#0",
          "ticks": 47280,
          "time": 24.625,
          "velocity": 1
        },
        {
          "duration": 0.125,
          "durationTicks": 240,
          "midi": 19,
          "name": "G0",
          "ticks": 47280,
          "time": 24.625,
          "velocity": 1
        },
        {
          "duration": 0.125,
          "durationTicks": 240,
          "midi": 18,
          "name": "F#0",
          "ticks": 47280,
          "time": 24.625,
          "velocity": 1
        },
        {
          "duration": 0.125,
          "durationTicks": 240,
          "midi": 69,
          "name": "A4",
          "ticks": 47520,
          "time": 24.75,
          "velocity": 1
        },
        {
          "duration": 0.125,
          "durationTicks": 240,
          "midi": 36,
          "name": "C2",
          "ticks": 47760,
          "time": 24.875,
          "velocity": 1
        },
        {
          "duration": 0.125,
          "durationTicks": 240,
          "midi": 71,
          "name": "B4",
          "ticks": 48000,
          "time": 25,
          "velocity": 1
        },
        {
          "duration": 1,
          "durationTicks": 1920,
          "midi": 50,
          "name": "D3",
          "ticks": 48000,
          "time": 25,
          "velocity": 1
        },
        {
          "duration": 0.5,
          "durationTicks": 960,
          "midi": 38,
          "name": "D2",
          "ticks": 48000,
          "time": 25,
          "velocity": 1
        },
        {
          "duration": 0.125,
          "durationTicks": 240,
          "midi": 23,
          "name": "B0",
          "ticks": 48720,
          "time": 25.375,
          "velocity": 1
        },
        {
          "duration": 0.125,
          "durationTicks": 240,
          "midi": 69,
          "name": "A4",
          "ticks": 48720,
          "time": 25.375,
          "velocity": 1
        },
        {
          "duration": 0.125,
          "durationTicks": 240,
          "midi": 23,
          "name": "B0",
          "ticks": 48720,
          "time": 25.375,
          "velocity": 1
        },
        {
          "duration": 0.125,
          "durationTicks": 240,
          "midi": 22,
          "name": "A#0",
          "ticks": 48720,
          "time": 25.375,
          "velocity": 1
        },
        {
          "duration": 0.125,
          "durationTicks": 240,
          "midi": 21,
          "name": "A0",
          "ticks": 48720,
          "time": 25.375,
          "velocity": 1
        },
        {
          "duration": 0.125,
          "durationTicks": 240,
          "midi": 20,
          "name": "G#0",
          "ticks": 48720,
          "time": 25.375,
          "velocity": 1
        },
        {
          "duration": 0.125,
          "durationTicks": 240,
          "midi": 19,
          "name": "G0",
          "ticks": 48720,
          "time": 25.375,
          "velocity": 1
        },
        {
          "duration": 0.125,
          "durationTicks": 240,
          "midi": 18,
          "name": "F#0",
          "ticks": 48720,
          "time": 25.375,
          "velocity": 1
        },
        {
          "duration": 0.125,
          "durationTicks": 240,
          "midi": 67,
          "name": "G4",
          "ticks": 48960,
          "time": 25.5,
          "velocity": 1
        },
        {
          "duration": 0.125,
          "durationTicks": 240,
          "midi": 21,
          "name": "A0",
          "ticks": 48960,
          "time": 25.5,
          "velocity": 1
        },
        {
          "duration": 0.125,
          "durationTicks": 240,
          "midi": 22,
          "name": "A#0",
          "ticks": 48960,
          "time": 25.5,
          "velocity": 1
        },
        {
          "duration": 0.125,
          "durationTicks": 240,
          "midi": 23,
          "name": "B0",
          "ticks": 48960,
          "time": 25.5,
          "velocity": 1
        },
        {
          "duration": 0.125,
          "durationTicks": 240,
          "midi": 25,
          "name": "C#1",
          "ticks": 48960,
          "time": 25.5,
          "velocity": 1
        },
        {
          "duration": 0.125,
          "durationTicks": 240,
          "midi": 24,
          "name": "C1",
          "ticks": 48960,
          "time": 25.5,
          "velocity": 1
        },
        {
          "duration": 0.125,
          "durationTicks": 240,
          "midi": 20,
          "name": "G#0",
          "ticks": 48960,
          "time": 25.5,
          "velocity": 1
        },
        {
          "duration": 0.125,
          "durationTicks": 240,
          "midi": 19,
          "name": "G0",
          "ticks": 48960,
          "time": 25.5,
          "velocity": 1
        },
        {
          "duration": 0.125,
          "durationTicks": 240,
          "midi": 18,
          "name": "F#0",
          "ticks": 48960,
          "time": 25.5,
          "velocity": 1
        },
        {
          "duration": 0.125,
          "durationTicks": 240,
          "midi": 17,
          "name": "F0",
          "ticks": 48960,
          "time": 25.5,
          "velocity": 1
        },
        {
          "duration": 0.125,
          "durationTicks": 240,
          "midi": 16,
          "name": "E0",
          "ticks": 48960,
          "time": 25.5,
          "velocity": 1
        },
        {
          "duration": 0.125,
          "durationTicks": 240,
          "midi": 38,
          "name": "D2",
          "ticks": 49200,
          "time": 25.625,
          "velocity": 1
        },
        {
          "duration": 0.125,
          "durationTicks": 240,
          "midi": 18,
          "name": "F#0",
          "ticks": 49200,
          "time": 25.625,
          "velocity": 1
        },
        {
          "duration": 0.125,
          "durationTicks": 240,
          "midi": 20,
          "name": "G#0",
          "ticks": 49200,
          "time": 25.625,
          "velocity": 1
        },
        {
          "duration": 0.125,
          "durationTicks": 240,
          "midi": 23,
          "name": "B0",
          "ticks": 49200,
          "time": 25.625,
          "velocity": 1
        },
        {
          "duration": 0.125,
          "durationTicks": 240,
          "midi": 22,
          "name": "A#0",
          "ticks": 49200,
          "time": 25.625,
          "velocity": 1
        },
        {
          "duration": 0.125,
          "durationTicks": 240,
          "midi": 21,
          "name": "A0",
          "ticks": 49200,
          "time": 25.625,
          "velocity": 1
        },
        {
          "duration": 0.125,
          "durationTicks": 240,
          "midi": 19,
          "name": "G0",
          "ticks": 49200,
          "time": 25.625,
          "velocity": 1
        },
        {
          "duration": 0.125,
          "durationTicks": 240,
          "midi": 67,
          "name": "G4",
          "ticks": 49440,
          "time": 25.75,
          "velocity": 1
        },
        {
          "duration": 0.125,
          "durationTicks": 240,
          "midi": 38,
          "name": "D2",
          "ticks": 49680,
          "time": 25.875,
          "velocity": 1
        },
        {
          "duration": 0.25,
          "durationTicks": 480,
          "midi": 74,
          "name": "D5",
          "ticks": 49920,
          "time": 26,
          "velocity": 1
        },
        {
          "duration": 0.5,
          "durationTicks": 960,
          "midi": 47,
          "name": "B2",
          "ticks": 49920,
          "time": 26,
          "velocity": 1
        },
        {
          "duration": 0.5,
          "durationTicks": 960,
          "midi": 35,
          "name": "B1",
          "ticks": 49920,
          "time": 26,
          "velocity": 1
        },
        {
          "duration": 0.125,
          "durationTicks": 240,
          "midi": 74,
          "name": "D5",
          "ticks": 50640,
          "time": 26.375,
          "velocity": 1
        },
        {
          "duration": 0.125,
          "durationTicks": 240,
          "midi": 23,
          "name": "B0",
          "ticks": 50640,
          "time": 26.375,
          "velocity": 1
        },
        {
          "duration": 0.125,
          "durationTicks": 240,
          "midi": 23,
          "name": "B0",
          "ticks": 50640,
          "time": 26.375,
          "velocity": 1
        },
        {
          "duration": 0.125,
          "durationTicks": 240,
          "midi": 22,
          "name": "A#0",
          "ticks": 50640,
          "time": 26.375,
          "velocity": 1
        },
        {
          "duration": 0.125,
          "durationTicks": 240,
          "midi": 21,
          "name": "A0",
          "ticks": 50640,
          "time": 26.375,
          "velocity": 1
        },
        {
          "duration": 0.125,
          "durationTicks": 240,
          "midi": 20,
          "name": "G#0",
          "ticks": 50640,
          "time": 26.375,
          "velocity": 1
        },
        {
          "duration": 0.125,
          "durationTicks": 240,
          "midi": 19,
          "name": "G0",
          "ticks": 50640,
          "time": 26.375,
          "velocity": 1
        },
        {
          "duration": 0.125,
          "durationTicks": 240,
          "midi": 18,
          "name": "F#0",
          "ticks": 50640,
          "time": 26.375,
          "velocity": 1
        },
        {
          "duration": 0.25,
          "durationTicks": 480,
          "midi": 75,
          "name": "D#5",
          "ticks": 50880,
          "time": 26.5,
          "velocity": 1
        },
        {
          "duration": 0.5,
          "durationTicks": 960,
          "midi": 51,
          "name": "D#3",
          "ticks": 50880,
          "time": 26.5,
          "velocity": 1
        },
        {
          "duration": 0.5,
          "durationTicks": 960,
          "midi": 39,
          "name": "D#2",
          "ticks": 50880,
          "time": 26.5,
          "velocity": 1
        },
        {
          "duration": 0.125,
          "durationTicks": 240,
          "midi": 21,
          "name": "A0",
          "ticks": 50880,
          "time": 26.5,
          "velocity": 1
        },
        {
          "duration": 0.125,
          "durationTicks": 240,
          "midi": 22,
          "name": "A#0",
          "ticks": 50880,
          "time": 26.5,
          "velocity": 1
        },
        {
          "duration": 0.125,
          "durationTicks": 240,
          "midi": 23,
          "name": "B0",
          "ticks": 50880,
          "time": 26.5,
          "velocity": 1
        },
        {
          "duration": 0.125,
          "durationTicks": 240,
          "midi": 25,
          "name": "C#1",
          "ticks": 50880,
          "time": 26.5,
          "velocity": 1
        },
        {
          "duration": 0.125,
          "durationTicks": 240,
          "midi": 24,
          "name": "C1",
          "ticks": 50880,
          "time": 26.5,
          "velocity": 1
        },
        {
          "duration": 0.125,
          "durationTicks": 240,
          "midi": 20,
          "name": "G#0",
          "ticks": 50880,
          "time": 26.5,
          "velocity": 1
        },
        {
          "duration": 0.125,
          "durationTicks": 240,
          "midi": 19,
          "name": "G0",
          "ticks": 50880,
          "time": 26.5,
          "velocity": 1
        },
        {
          "duration": 0.125,
          "durationTicks": 240,
          "midi": 18,
          "name": "F#0",
          "ticks": 50880,
          "time": 26.5,
          "velocity": 1
        },
        {
          "duration": 0.125,
          "durationTicks": 240,
          "midi": 17,
          "name": "F0",
          "ticks": 50880,
          "time": 26.5,
          "velocity": 1
        },
        {
          "duration": 0.125,
          "durationTicks": 240,
          "midi": 16,
          "name": "E0",
          "ticks": 50880,
          "time": 26.5,
          "velocity": 1
        },
        {
          "duration": 0.125,
          "durationTicks": 240,
          "midi": 18,
          "name": "F#0",
          "ticks": 51120,
          "time": 26.625,
          "velocity": 1
        },
        {
          "duration": 0.125,
          "durationTicks": 240,
          "midi": 20,
          "name": "G#0",
          "ticks": 51120,
          "time": 26.625,
          "velocity": 1
        },
        {
          "duration": 0.125,
          "durationTicks": 240,
          "midi": 23,
          "name": "B0",
          "ticks": 51120,
          "time": 26.625,
          "velocity": 1
        },
        {
          "duration": 0.125,
          "durationTicks": 240,
          "midi": 22,
          "name": "A#0",
          "ticks": 51120,
          "time": 26.625,
          "velocity": 1
        },
        {
          "duration": 0.125,
          "durationTicks": 240,
          "midi": 21,
          "name": "A0",
          "ticks": 51120,
          "time": 26.625,
          "velocity": 1
        },
        {
          "duration": 0.125,
          "durationTicks": 240,
          "midi": 19,
          "name": "G0",
          "ticks": 51120,
          "time": 26.625,
          "velocity": 1
        },
        {
          "duration": 0.125,
          "durationTicks": 240,
          "midi": 75,
          "name": "D#5",
          "ticks": 51600,
          "time": 26.875,
          "velocity": 1
        },
        {
          "duration": 0.25,
          "durationTicks": 480,
          "midi": 76,
          "name": "E5",
          "ticks": 51840,
          "time": 27,
          "velocity": 1
        },
        {
          "duration": 0.5,
          "durationTicks": 960,
          "midi": 52,
          "name": "E3",
          "ticks": 51840,
          "time": 27,
          "velocity": 1
        },
        {
          "duration": 0.5,
          "durationTicks": 960,
          "midi": 40,
          "name": "E2",
          "ticks": 51840,
          "time": 27,
          "velocity": 1
        },
        {
          "duration": 0.125,
          "durationTicks": 240,
          "midi": 71,
          "name": "B4",
          "ticks": 52320,
          "time": 27.25,
          "velocity": 1
        },
        {
          "duration": 0.125,
          "durationTicks": 240,
          "midi": 23,
          "name": "B0",
          "ticks": 52560,
          "time": 27.375,
          "velocity": 1
        },
        {
          "duration": 0.125,
          "durationTicks": 240,
          "midi": 23,
          "name": "B0",
          "ticks": 52560,
          "time": 27.375,
          "velocity": 1
        },
        {
          "duration": 0.125,
          "durationTicks": 240,
          "midi": 22,
          "name": "A#0",
          "ticks": 52560,
          "time": 27.375,
          "velocity": 1
        },
        {
          "duration": 0.125,
          "durationTicks": 240,
          "midi": 21,
          "name": "A0",
          "ticks": 52560,
          "time": 27.375,
          "velocity": 1
        },
        {
          "duration": 0.125,
          "durationTicks": 240,
          "midi": 20,
          "name": "G#0",
          "ticks": 52560,
          "time": 27.375,
          "velocity": 1
        },
        {
          "duration": 0.125,
          "durationTicks": 240,
          "midi": 19,
          "name": "G0",
          "ticks": 52560,
          "time": 27.375,
          "velocity": 1
        },
        {
          "duration": 0.125,
          "durationTicks": 240,
          "midi": 18,
          "name": "F#0",
          "ticks": 52560,
          "time": 27.375,
          "velocity": 1
        },
        {
          "duration": 0.125,
          "durationTicks": 240,
          "midi": 69,
          "name": "A4",
          "ticks": 52800,
          "time": 27.5,
          "velocity": 1
        },
        {
          "duration": 0.5,
          "durationTicks": 960,
          "midi": 50,
          "name": "D3",
          "ticks": 52800,
          "time": 27.5,
          "velocity": 1
        },
        {
          "duration": 0.125,
          "durationTicks": 240,
          "midi": 21,
          "name": "A0",
          "ticks": 52800,
          "time": 27.5,
          "velocity": 1
        },
        {
          "duration": 0.125,
          "durationTicks": 240,
          "midi": 22,
          "name": "A#0",
          "ticks": 52800,
          "time": 27.5,
          "velocity": 1
        },
        {
          "duration": 0.125,
          "durationTicks": 240,
          "midi": 23,
          "name": "B0",
          "ticks": 52800,
          "time": 27.5,
          "velocity": 1
        },
        {
          "duration": 0.125,
          "durationTicks": 240,
          "midi": 25,
          "name": "C#1",
          "ticks": 52800,
          "time": 27.5,
          "velocity": 1
        },
        {
          "duration": 0.125,
          "durationTicks": 240,
          "midi": 24,
          "name": "C1",
          "ticks": 52800,
          "time": 27.5,
          "velocity": 1
        },
        {
          "duration": 0.125,
          "durationTicks": 240,
          "midi": 20,
          "name": "G#0",
          "ticks": 52800,
          "time": 27.5,
          "velocity": 1
        },
        {
          "duration": 0.125,
          "durationTicks": 240,
          "midi": 19,
          "name": "G0",
          "ticks": 52800,
          "time": 27.5,
          "velocity": 1
        },
        {
          "duration": 0.125,
          "durationTicks": 240,
          "midi": 18,
          "name": "F#0",
          "ticks": 52800,
          "time": 27.5,
          "velocity": 1
        },
        {
          "duration": 0.125,
          "durationTicks": 240,
          "midi": 17,
          "name": "F0",
          "ticks": 52800,
          "time": 27.5,
          "velocity": 1
        },
        {
          "duration": 0.125,
          "durationTicks": 240,
          "midi": 16,
          "name": "E0",
          "ticks": 52800,
          "time": 27.5,
          "velocity": 1
        },
        {
          "duration": 0.125,
          "durationTicks": 240,
          "midi": 40,
          "name": "E2",
          "ticks": 53040,
          "time": 27.625,
          "velocity": 1
        },
        {
          "duration": 0.125,
          "durationTicks": 240,
          "midi": 18,
          "name": "F#0",
          "ticks": 53040,
          "time": 27.625,
          "velocity": 1
        },
        {
          "duration": 0.125,
          "durationTicks": 240,
          "midi": 20,
          "name": "G#0",
          "ticks": 53040,
          "time": 27.625,
          "velocity": 1
        },
        {
          "duration": 0.125,
          "durationTicks": 240,
          "midi": 23,
          "name": "B0",
          "ticks": 53040,
          "time": 27.625,
          "velocity": 1
        },
        {
          "duration": 0.125,
          "durationTicks": 240,
          "midi": 22,
          "name": "A#0",
          "ticks": 53040,
          "time": 27.625,
          "velocity": 1
        },
        {
          "duration": 0.125,
          "durationTicks": 240,
          "midi": 21,
          "name": "A0",
          "ticks": 53040,
          "time": 27.625,
          "velocity": 1
        },
        {
          "duration": 0.125,
          "durationTicks": 240,
          "midi": 19,
          "name": "G0",
          "ticks": 53040,
          "time": 27.625,
          "velocity": 1
        },
        {
          "duration": 0.125,
          "durationTicks": 240,
          "midi": 67,
          "name": "G4",
          "ticks": 53280,
          "time": 27.75,
          "velocity": 1
        },
        {
          "duration": 0.125,
          "durationTicks": 240,
          "midi": 40,
          "name": "E2",
          "ticks": 53520,
          "time": 27.875,
          "velocity": 1
        },
        {
          "duration": 0.125,
          "durationTicks": 240,
          "midi": 70,
          "name": "A#4",
          "ticks": 53760,
          "time": 28,
          "velocity": 1
        },
        {
          "duration": 1,
          "durationTicks": 1920,
          "midi": 45,
          "name": "A2",
          "ticks": 53760,
          "time": 28,
          "velocity": 1
        },
        {
          "duration": 0.5,
          "durationTicks": 960,
          "midi": 33,
          "name": "A1",
          "ticks": 53760,
          "time": 28,
          "velocity": 1
        },
        {
          "duration": 0.125,
          "durationTicks": 240,
          "midi": 69,
          "name": "A4",
          "ticks": 54000,
          "time": 28.125,
          "velocity": 1
        },
        {
          "duration": 0.125,
          "durationTicks": 240,
          "midi": 67,
          "name": "G4",
          "ticks": 54480,
          "time": 28.375,
          "velocity": 1
        },
        {
          "duration": 0.125,
          "durationTicks": 240,
          "midi": 23,
          "name": "B0",
          "ticks": 54480,
          "time": 28.375,
          "velocity": 1
        },
        {
          "duration": 0.125,
          "durationTicks": 240,
          "midi": 23,
          "name": "B0",
          "ticks": 54480,
          "time": 28.375,
          "velocity": 1
        },
        {
          "duration": 0.125,
          "durationTicks": 240,
          "midi": 22,
          "name": "A#0",
          "ticks": 54480,
          "time": 28.375,
          "velocity": 1
        },
        {
          "duration": 0.125,
          "durationTicks": 240,
          "midi": 21,
          "name": "A0",
          "ticks": 54480,
          "time": 28.375,
          "velocity": 1
        },
        {
          "duration": 0.125,
          "durationTicks": 240,
          "midi": 20,
          "name": "G#0",
          "ticks": 54480,
          "time": 28.375,
          "velocity": 1
        },
        {
          "duration": 0.125,
          "durationTicks": 240,
          "midi": 19,
          "name": "G0",
          "ticks": 54480,
          "time": 28.375,
          "velocity": 1
        },
        {
          "duration": 0.125,
          "durationTicks": 240,
          "midi": 18,
          "name": "F#0",
          "ticks": 54480,
          "time": 28.375,
          "velocity": 1
        },
        {
          "duration": 0.125,
          "durationTicks": 240,
          "midi": 21,
          "name": "A0",
          "ticks": 54720,
          "time": 28.5,
          "velocity": 1
        },
        {
          "duration": 0.125,
          "durationTicks": 240,
          "midi": 22,
          "name": "A#0",
          "ticks": 54720,
          "time": 28.5,
          "velocity": 1
        },
        {
          "duration": 0.125,
          "durationTicks": 240,
          "midi": 23,
          "name": "B0",
          "ticks": 54720,
          "time": 28.5,
          "velocity": 1
        },
        {
          "duration": 0.125,
          "durationTicks": 240,
          "midi": 25,
          "name": "C#1",
          "ticks": 54720,
          "time": 28.5,
          "velocity": 1
        },
        {
          "duration": 0.125,
          "durationTicks": 240,
          "midi": 24,
          "name": "C1",
          "ticks": 54720,
          "time": 28.5,
          "velocity": 1
        },
        {
          "duration": 0.125,
          "durationTicks": 240,
          "midi": 20,
          "name": "G#0",
          "ticks": 54720,
          "time": 28.5,
          "velocity": 1
        },
        {
          "duration": 0.125,
          "durationTicks": 240,
          "midi": 19,
          "name": "G0",
          "ticks": 54720,
          "time": 28.5,
          "velocity": 1
        },
        {
          "duration": 0.125,
          "durationTicks": 240,
          "midi": 18,
          "name": "F#0",
          "ticks": 54720,
          "time": 28.5,
          "velocity": 1
        },
        {
          "duration": 0.125,
          "durationTicks": 240,
          "midi": 17,
          "name": "F0",
          "ticks": 54720,
          "time": 28.5,
          "velocity": 1
        },
        {
          "duration": 0.125,
          "durationTicks": 240,
          "midi": 16,
          "name": "E0",
          "ticks": 54720,
          "time": 28.5,
          "velocity": 1
        },
        {
          "duration": 0.125,
          "durationTicks": 240,
          "midi": 33,
          "name": "A1",
          "ticks": 54960,
          "time": 28.625,
          "velocity": 1
        },
        {
          "duration": 0.125,
          "durationTicks": 240,
          "midi": 18,
          "name": "F#0",
          "ticks": 54960,
          "time": 28.625,
          "velocity": 1
        },
        {
          "duration": 0.125,
          "durationTicks": 240,
          "midi": 20,
          "name": "G#0",
          "ticks": 54960,
          "time": 28.625,
          "velocity": 1
        },
        {
          "duration": 0.125,
          "durationTicks": 240,
          "midi": 23,
          "name": "B0",
          "ticks": 54960,
          "time": 28.625,
          "velocity": 1
        },
        {
          "duration": 0.125,
          "durationTicks": 240,
          "midi": 22,
          "name": "A#0",
          "ticks": 54960,
          "time": 28.625,
          "velocity": 1
        },
        {
          "duration": 0.125,
          "durationTicks": 240,
          "midi": 21,
          "name": "A0",
          "ticks": 54960,
          "time": 28.625,
          "velocity": 1
        },
        {
          "duration": 0.125,
          "durationTicks": 240,
          "midi": 19,
          "name": "G0",
          "ticks": 54960,
          "time": 28.625,
          "velocity": 1
        },
        {
          "duration": 0.125,
          "durationTicks": 240,
          "midi": 64,
          "name": "E4",
          "ticks": 55200,
          "time": 28.75,
          "velocity": 1
        },
        {
          "duration": 0.125,
          "durationTicks": 240,
          "midi": 33,
          "name": "A1",
          "ticks": 55440,
          "time": 28.875,
          "velocity": 1
        },
        {
          "duration": 0.125,
          "durationTicks": 240,
          "midi": 70,
          "name": "A#4",
          "ticks": 55680,
          "time": 29,
          "velocity": 1
        },
        {
          "duration": 1,
          "durationTicks": 1920,
          "midi": 50,
          "name": "D3",
          "ticks": 55680,
          "time": 29,
          "velocity": 1
        },
        {
          "duration": 0.5,
          "durationTicks": 960,
          "midi": 38,
          "name": "D2",
          "ticks": 55680,
          "time": 29,
          "velocity": 1
        },
        {
          "duration": 0.125,
          "durationTicks": 240,
          "midi": 69,
          "name": "A4",
          "ticks": 55920,
          "time": 29.125,
          "velocity": 1
        },
        {
          "duration": 0.125,
          "durationTicks": 240,
          "midi": 67,
          "name": "G4",
          "ticks": 56400,
          "time": 29.375,
          "velocity": 1
        },
        {
          "duration": 0.125,
          "durationTicks": 240,
          "midi": 23,
          "name": "B0",
          "ticks": 56400,
          "time": 29.375,
          "velocity": 1
        },
        {
          "duration": 0.125,
          "durationTicks": 240,
          "midi": 23,
          "name": "B0",
          "ticks": 56400,
          "time": 29.375,
          "velocity": 1
        },
        {
          "duration": 0.125,
          "durationTicks": 240,
          "midi": 22,
          "name": "A#0",
          "ticks": 56400,
          "time": 29.375,
          "velocity": 1
        },
        {
          "duration": 0.125,
          "durationTicks": 240,
          "midi": 21,
          "name": "A0",
          "ticks": 56400,
          "time": 29.375,
          "velocity": 1
        },
        {
          "duration": 0.125,
          "durationTicks": 240,
          "midi": 20,
          "name": "G#0",
          "ticks": 56400,
          "time": 29.375,
          "velocity": 1
        },
        {
          "duration": 0.125,
          "durationTicks": 240,
          "midi": 19,
          "name": "G0",
          "ticks": 56400,
          "time": 29.375,
          "velocity": 1
        },
        {
          "duration": 0.125,
          "durationTicks": 240,
          "midi": 18,
          "name": "F#0",
          "ticks": 56400,
          "time": 29.375,
          "velocity": 1
        },
        {
          "duration": 0.125,
          "durationTicks": 240,
          "midi": 21,
          "name": "A0",
          "ticks": 56640,
          "time": 29.5,
          "velocity": 1
        },
        {
          "duration": 0.125,
          "durationTicks": 240,
          "midi": 22,
          "name": "A#0",
          "ticks": 56640,
          "time": 29.5,
          "velocity": 1
        },
        {
          "duration": 0.125,
          "durationTicks": 240,
          "midi": 23,
          "name": "B0",
          "ticks": 56640,
          "time": 29.5,
          "velocity": 1
        },
        {
          "duration": 0.125,
          "durationTicks": 240,
          "midi": 25,
          "name": "C#1",
          "ticks": 56640,
          "time": 29.5,
          "velocity": 1
        },
        {
          "duration": 0.125,
          "durationTicks": 240,
          "midi": 24,
          "name": "C1",
          "ticks": 56640,
          "time": 29.5,
          "velocity": 1
        },
        {
          "duration": 0.125,
          "durationTicks": 240,
          "midi": 20,
          "name": "G#0",
          "ticks": 56640,
          "time": 29.5,
          "velocity": 1
        },
        {
          "duration": 0.125,
          "durationTicks": 240,
          "midi": 19,
          "name": "G0",
          "ticks": 56640,
          "time": 29.5,
          "velocity": 1
        },
        {
          "duration": 0.125,
          "durationTicks": 240,
          "midi": 18,
          "name": "F#0",
          "ticks": 56640,
          "time": 29.5,
          "velocity": 1
        },
        {
          "duration": 0.125,
          "durationTicks": 240,
          "midi": 17,
          "name": "F0",
          "ticks": 56640,
          "time": 29.5,
          "velocity": 1
        },
        {
          "duration": 0.125,
          "durationTicks": 240,
          "midi": 16,
          "name": "E0",
          "ticks": 56640,
          "time": 29.5,
          "velocity": 1
        },
        {
          "duration": 0.125,
          "durationTicks": 240,
          "midi": 38,
          "name": "D2",
          "ticks": 56880,
          "time": 29.625,
          "velocity": 1
        },
        {
          "duration": 0.125,
          "durationTicks": 240,
          "midi": 18,
          "name": "F#0",
          "ticks": 56880,
          "time": 29.625,
          "velocity": 1
        },
        {
          "duration": 0.125,
          "durationTicks": 240,
          "midi": 20,
          "name": "G#0",
          "ticks": 56880,
          "time": 29.625,
          "velocity": 1
        },
        {
          "duration": 0.125,
          "durationTicks": 240,
          "midi": 23,
          "name": "B0",
          "ticks": 56880,
          "time": 29.625,
          "velocity": 1
        },
        {
          "duration": 0.125,
          "durationTicks": 240,
          "midi": 22,
          "name": "A#0",
          "ticks": 56880,
          "time": 29.625,
          "velocity": 1
        },
        {
          "duration": 0.125,
          "durationTicks": 240,
          "midi": 21,
          "name": "A0",
          "ticks": 56880,
          "time": 29.625,
          "velocity": 1
        },
        {
          "duration": 0.125,
          "durationTicks": 240,
          "midi": 19,
          "name": "G0",
          "ticks": 56880,
          "time": 29.625,
          "velocity": 1
        },
        {
          "duration": 0.125,
          "durationTicks": 240,
          "midi": 69,
          "name": "A4",
          "ticks": 57120,
          "time": 29.75,
          "velocity": 1
        },
        {
          "duration": 0.125,
          "durationTicks": 240,
          "midi": 38,
          "name": "D2",
          "ticks": 57360,
          "time": 29.875,
          "velocity": 1
        },
        {
          "duration": 1,
          "durationTicks": 1920,
          "midi": 67,
          "name": "G4",
          "ticks": 57600,
          "time": 30,
          "velocity": 1
        },
        {
          "duration": 1,
          "durationTicks": 1920,
          "midi": 55,
          "name": "G3",
          "ticks": 57600,
          "time": 30,
          "velocity": 1
        },
        {
          "duration": 0.5,
          "durationTicks": 960,
          "midi": 43,
          "name": "G2",
          "ticks": 57600,
          "time": 30,
          "velocity": 1
        },
        {
          "duration": 0.25,
          "durationTicks": 480,
          "midi": 31,
          "name": "G1",
          "ticks": 57600,
          "time": 30,
          "velocity": 1
        },
        {
          "duration": 0.125,
          "durationTicks": 240,
          "midi": 23,
          "name": "B0",
          "ticks": 58320,
          "time": 30.375,
          "velocity": 1
        },
        {
          "duration": 0.125,
          "durationTicks": 240,
          "midi": 23,
          "name": "B0",
          "ticks": 58320,
          "time": 30.375,
          "velocity": 1
        },
        {
          "duration": 0.125,
          "durationTicks": 240,
          "midi": 22,
          "name": "A#0",
          "ticks": 58320,
          "time": 30.375,
          "velocity": 1
        },
        {
          "duration": 0.125,
          "durationTicks": 240,
          "midi": 21,
          "name": "A0",
          "ticks": 58320,
          "time": 30.375,
          "velocity": 1
        },
        {
          "duration": 0.125,
          "durationTicks": 240,
          "midi": 20,
          "name": "G#0",
          "ticks": 58320,
          "time": 30.375,
          "velocity": 1
        },
        {
          "duration": 0.125,
          "durationTicks": 240,
          "midi": 19,
          "name": "G0",
          "ticks": 58320,
          "time": 30.375,
          "velocity": 1
        },
        {
          "duration": 0.125,
          "durationTicks": 240,
          "midi": 18,
          "name": "F#0",
          "ticks": 58320,
          "time": 30.375,
          "velocity": 1
        },
        {
          "duration": 0.125,
          "durationTicks": 240,
          "midi": 31,
          "name": "G1",
          "ticks": 58560,
          "time": 30.5,
          "velocity": 1
        },
        {
          "duration": 0.125,
          "durationTicks": 240,
          "midi": 21,
          "name": "A0",
          "ticks": 58560,
          "time": 30.5,
          "velocity": 1
        },
        {
          "duration": 0.125,
          "durationTicks": 240,
          "midi": 22,
          "name": "A#0",
          "ticks": 58560,
          "time": 30.5,
          "velocity": 1
        },
        {
          "duration": 0.125,
          "durationTicks": 240,
          "midi": 23,
          "name": "B0",
          "ticks": 58560,
          "time": 30.5,
          "velocity": 1
        },
        {
          "duration": 0.125,
          "durationTicks": 240,
          "midi": 25,
          "name": "C#1",
          "ticks": 58560,
          "time": 30.5,
          "velocity": 1
        },
        {
          "duration": 0.125,
          "durationTicks": 240,
          "midi": 24,
          "name": "C1",
          "ticks": 58560,
          "time": 30.5,
          "velocity": 1
        },
        {
          "duration": 0.125,
          "durationTicks": 240,
          "midi": 20,
          "name": "G#0",
          "ticks": 58560,
          "time": 30.5,
          "velocity": 1
        },
        {
          "duration": 0.125,
          "durationTicks": 240,
          "midi": 19,
          "name": "G0",
          "ticks": 58560,
          "time": 30.5,
          "velocity": 1
        },
        {
          "duration": 0.125,
          "durationTicks": 240,
          "midi": 18,
          "name": "F#0",
          "ticks": 58560,
          "time": 30.5,
          "velocity": 1
        },
        {
          "duration": 0.125,
          "durationTicks": 240,
          "midi": 17,
          "name": "F0",
          "ticks": 58560,
          "time": 30.5,
          "velocity": 1
        },
        {
          "duration": 0.125,
          "durationTicks": 240,
          "midi": 16,
          "name": "E0",
          "ticks": 58560,
          "time": 30.5,
          "velocity": 1
        },
        {
          "duration": 0.125,
          "durationTicks": 240,
          "midi": 43,
          "name": "G2",
          "ticks": 58800,
          "time": 30.625,
          "velocity": 1
        },
        {
          "duration": 0.125,
          "durationTicks": 240,
          "midi": 18,
          "name": "F#0",
          "ticks": 58800,
          "time": 30.625,
          "velocity": 1
        },
        {
          "duration": 0.125,
          "durationTicks": 240,
          "midi": 20,
          "name": "G#0",
          "ticks": 58800,
          "time": 30.625,
          "velocity": 1
        },
        {
          "duration": 0.125,
          "durationTicks": 240,
          "midi": 23,
          "name": "B0",
          "ticks": 58800,
          "time": 30.625,
          "velocity": 1
        },
        {
          "duration": 0.125,
          "durationTicks": 240,
          "midi": 22,
          "name": "A#0",
          "ticks": 58800,
          "time": 30.625,
          "velocity": 1
        },
        {
          "duration": 0.125,
          "durationTicks": 240,
          "midi": 21,
          "name": "A0",
          "ticks": 58800,
          "time": 30.625,
          "velocity": 1
        },
        {
          "duration": 0.125,
          "durationTicks": 240,
          "midi": 19,
          "name": "G0",
          "ticks": 58800,
          "time": 30.625,
          "velocity": 1
        },
        {
          "duration": 0.125,
          "durationTicks": 240,
          "midi": 31,
          "name": "G1",
          "ticks": 59040,
          "time": 30.75,
          "velocity": 1
        },
        {
          "duration": 0.125,
          "durationTicks": 240,
          "midi": 43,
          "name": "G2",
          "ticks": 59280,
          "time": 30.875,
          "velocity": 1
        },
        {
          "duration": 0.5,
          "durationTicks": 960,
          "midi": 43,
          "name": "G2",
          "ticks": 59520,
          "time": 31,
          "velocity": 1
        },
        {
          "duration": 0.25,
          "durationTicks": 480,
          "midi": 31,
          "name": "G1",
          "ticks": 59520,
          "time": 31,
          "velocity": 1
        },
        {
          "duration": 1,
          "durationTicks": 1920,
          "midi": 67,
          "name": "G4",
          "ticks": 59520,
          "time": 31,
          "velocity": 1
        },
        {
          "duration": 1,
          "durationTicks": 1920,
          "midi": 55,
          "name": "G3",
          "ticks": 59520,
          "time": 31,
          "velocity": 1
        },
        {
          "duration": 0.125,
          "durationTicks": 240,
          "midi": 23,
          "name": "B0",
          "ticks": 60240,
          "time": 31.375,
          "velocity": 1
        },
        {
          "duration": 0.125,
          "durationTicks": 240,
          "midi": 23,
          "name": "B0",
          "ticks": 60240,
          "time": 31.375,
          "velocity": 1
        },
        {
          "duration": 0.125,
          "durationTicks": 240,
          "midi": 22,
          "name": "A#0",
          "ticks": 60240,
          "time": 31.375,
          "velocity": 1
        },
        {
          "duration": 0.125,
          "durationTicks": 240,
          "midi": 21,
          "name": "A0",
          "ticks": 60240,
          "time": 31.375,
          "velocity": 1
        },
        {
          "duration": 0.125,
          "durationTicks": 240,
          "midi": 20,
          "name": "G#0",
          "ticks": 60240,
          "time": 31.375,
          "velocity": 1
        },
        {
          "duration": 0.125,
          "durationTicks": 240,
          "midi": 19,
          "name": "G0",
          "ticks": 60240,
          "time": 31.375,
          "velocity": 1
        },
        {
          "duration": 0.125,
          "durationTicks": 240,
          "midi": 18,
          "name": "F#0",
          "ticks": 60240,
          "time": 31.375,
          "velocity": 1
        },
        {
          "duration": 0.125,
          "durationTicks": 240,
          "midi": 31,
          "name": "G1",
          "ticks": 60480,
          "time": 31.5,
          "velocity": 1
        },
        {
          "duration": 0.125,
          "durationTicks": 240,
          "midi": 21,
          "name": "A0",
          "ticks": 60480,
          "time": 31.5,
          "velocity": 1
        },
        {
          "duration": 0.125,
          "durationTicks": 240,
          "midi": 22,
          "name": "A#0",
          "ticks": 60480,
          "time": 31.5,
          "velocity": 1
        },
        {
          "duration": 0.125,
          "durationTicks": 240,
          "midi": 23,
          "name": "B0",
          "ticks": 60480,
          "time": 31.5,
          "velocity": 1
        },
        {
          "duration": 0.125,
          "durationTicks": 240,
          "midi": 25,
          "name": "C#1",
          "ticks": 60480,
          "time": 31.5,
          "velocity": 1
        },
        {
          "duration": 0.125,
          "durationTicks": 240,
          "midi": 24,
          "name": "C1",
          "ticks": 60480,
          "time": 31.5,
          "velocity": 1
        },
        {
          "duration": 0.125,
          "durationTicks": 240,
          "midi": 20,
          "name": "G#0",
          "ticks": 60480,
          "time": 31.5,
          "velocity": 1
        },
        {
          "duration": 0.125,
          "durationTicks": 240,
          "midi": 19,
          "name": "G0",
          "ticks": 60480,
          "time": 31.5,
          "velocity": 1
        },
        {
          "duration": 0.125,
          "durationTicks": 240,
          "midi": 18,
          "name": "F#0",
          "ticks": 60480,
          "time": 31.5,
          "velocity": 1
        },
        {
          "duration": 0.125,
          "durationTicks": 240,
          "midi": 17,
          "name": "F0",
          "ticks": 60480,
          "time": 31.5,
          "velocity": 1
        },
        {
          "duration": 0.125,
          "durationTicks": 240,
          "midi": 16,
          "name": "E0",
          "ticks": 60480,
          "time": 31.5,
          "velocity": 1
        },
        {
          "duration": 0.125,
          "durationTicks": 240,
          "midi": 43,
          "name": "G2",
          "ticks": 60720,
          "time": 31.625,
          "velocity": 1
        },
        {
          "duration": 0.125,
          "durationTicks": 240,
          "midi": 18,
          "name": "F#0",
          "ticks": 60720,
          "time": 31.625,
          "velocity": 1
        },
        {
          "duration": 0.125,
          "durationTicks": 240,
          "midi": 20,
          "name": "G#0",
          "ticks": 60720,
          "time": 31.625,
          "velocity": 1
        },
        {
          "duration": 0.125,
          "durationTicks": 240,
          "midi": 23,
          "name": "B0",
          "ticks": 60720,
          "time": 31.625,
          "velocity": 1
        },
        {
          "duration": 0.125,
          "durationTicks": 240,
          "midi": 22,
          "name": "A#0",
          "ticks": 60720,
          "time": 31.625,
          "velocity": 1
        },
        {
          "duration": 0.125,
          "durationTicks": 240,
          "midi": 21,
          "name": "A0",
          "ticks": 60720,
          "time": 31.625,
          "velocity": 1
        },
        {
          "duration": 0.125,
          "durationTicks": 240,
          "midi": 19,
          "name": "G0",
          "ticks": 60720,
          "time": 31.625,
          "velocity": 1
        },
        {
          "duration": 0.125,
          "durationTicks": 240,
          "midi": 31,
          "name": "G1",
          "ticks": 60960,
          "time": 31.75,
          "velocity": 1
        },
        {
          "duration": 0.125,
          "durationTicks": 240,
          "midi": 43,
          "name": "G2",
          "ticks": 61200,
          "time": 31.875,
          "velocity": 1
        }
      ]
    }
  ]
}
