{
  "header": {
    "keySignatures": [],
    "meta": [],
    "name": "",
    "ppq": 480,
    "tempos": [
      {
        "bpm": 240,
        "ticks": 0
      }
    ],
    "timeSignatures": [
      {
        "ticks": 0,
        "timeSignature": [
          4,
          4
        ],
        "measures": 0
      }
    ]
  },
  "tracks": [
    {
      "channel": 0,
      "controlChanges": {
        "1": [
          {
            "number": 1,
            "ticks": 0,
            "time": 0,
            "value": 0
          }
        ],
        "6": [
          {
            "number": 6,
            "ticks": 0,
            "time": 0,
            "value": 0.5039370078740157
          },
          {
            "number": 6,
            "ticks": 0,
            "time": 0,
            "value": 0.5039370078740157
          },
          {
            "number": 6,
            "ticks": 0,
            "time": 0,
            "value": 0.09448818897637795
          }
        ],
        "7": [
          {
            "number": 7,
            "ticks": 0,
            "time": 0,
            "value": 0.31496062992125984
          }
        ],
        "10": [
          {
            "number": 10,
            "ticks": 0,
            "time": 0,
            "value": 0.5039370078740157
          }
        ],
        "11": [
          {
            "number": 11,
            "ticks": 0,
            "time": 0,
            "value": 1
          }
        ],
        "38": [
          {
            "number": 38,
            "ticks": 0,
            "time": 0,
            "value": 0
          }
        ],
        "100": [
          {
            "number": 100,
            "ticks": 0,
            "time": 0,
            "value": 0.015748031496062992
          },
          {
            "number": 100,
            "ticks": 0,
            "time": 0,
            "value": 0.007874015748031496
          },
          {
            "number": 100,
            "ticks": 0,
            "time": 0,
            "value": 0
          }
        ],
        "101": [
          {
            "number": 101,
            "ticks": 0,
            "time": 0,
            "value": 0
          },
          {
            "number": 101,
            "ticks": 0,
            "time": 0,
            "value": 0
          },
          {
            "number": 101,
            "ticks": 0,
            "time": 0,
            "value": 0
          }
        ],
        "121": [
          {
            "number": 121,
            "ticks": 0,
            "time": 0,
            "value": 0
          }
        ]
      },
      "pitchBends": [
        {
          "ticks": 0,
          "time": 0,
          "value": 0
        }
      ],
      "instrument": {
        "family": "piano",
        "number": 0,
        "name": "acoustic grand piano"
      },
      "name": "",
      "notes": [
        {
          "duration": 0.125,
          "durationTicks": 240,
          "midi": 60,
          "name": "C4",
          "ticks": 0,
          "time": 0,
          "velocity": 1
        },
        {
          "duration": 1,
          "durationTicks": 1920,
          "midi": 53,
          "name": "F3",
          "ticks": 0,
          "time": 0,
          "velocity": 1
        },
        {
          "duration": 0.125,
          "durationTicks": 240,
          "midi": 69,
          "name": "A4",
          "ticks": 480,
          "time": 0.25,
          "velocity": 1
        },
        {
          "duration": 0.125,
          "durationTicks": 240,
          "midi": 67,
          "name": "G4",
          "ticks": 960,
          "time": 0.5,
          "velocity": 1
        },
        {
          "duration": 0.125,
          "durationTicks": 240,
          "midi": 65,
          "name": "F4",
          "ticks": 1440,
          "time": 0.75,
          "velocity": 1
        },
        {
          "duration": 0.625,
          "durationTicks": 1200,
          "midi": 60,
          "name": "C4",
          "ticks": 1920,
          "time": 1,
          "velocity": 1
        },
        {
          "duration": 1,
          "durationTicks": 1920,
          "midi": 53,
          "name": "F3",
          "ticks": 1920,
          "time": 1,
          "velocity": 1
        },
        {
          "duration": 0.125,
          "durationTicks": 240,
          "midi": 60,
          "name": "C4",
          "ticks": 3360,
          "time": 1.75,
          "velocity": 1
        },
        {
          "duration": 0.125,
          "durationTicks": 240,
          "midi": 60,
          "name": "C4",
          "ticks": 3840,
          "time": 2,
          "velocity": 1
        },
        {
          "duration": 1,
          "durationTicks": 1920,
          "midi": 53,
          "name": "F3",
          "ticks": 3840,
          "time": 2,
          "velocity": 1
        },
        {
          "duration": 0.125,
          "durationTicks": 240,
          "midi": 69,
          "name": "A4",
          "ticks": 4320,
          "time": 2.25,
          "velocity": 1
        },
        {
          "duration": 0.125,
          "durationTicks": 240,
          "midi": 67,
          "name": "G4",
          "ticks": 4800,
          "time": 2.5,
          "velocity": 1
        },
        {
          "duration": 0.125,
          "durationTicks": 240,
          "midi": 65,
          "name": "F4",
          "ticks": 5280,
          "time": 2.75,
          "velocity": 1
        },
        {
          "duration": 0.625,
          "durationTicks": 1200,
          "midi": 62,
          "name": "D4",
          "ticks": 5760,
          "time": 3,
          "velocity": 1
        },
        {
          "duration": 1,
          "durationTicks": 1920,
          "midi": 46,
          "name": "A#2",
          "ticks": 5760,
          "time": 3,
          "velocity": 1
        },
        {
          "duration": 0.125,
          "durationTicks": 240,
          "midi": 62,
          "name": "D4",
          "ticks": 7200,
          "time": 3.75,
          "velocity": 1
        },
        {
          "duration": 0.125,
          "durationTicks": 240,
          "midi": 62,
          "name": "D4",
          "ticks": 7680,
          "time": 4,
          "velocity": 1
        },
        {
          "duration": 1,
          "durationTicks": 1920,
          "midi": 46,
          "name": "A#2",
          "ticks": 7680,
          "time": 4,
          "velocity": 1
        },
        {
          "duration": 0.125,
          "durationTicks": 240,
          "midi": 70,
          "name": "A#4",
          "ticks": 8160,
          "time": 4.25,
          "velocity": 1
        },
        {
          "duration": 0.125,
          "durationTicks": 240,
          "midi": 69,
          "name": "A4",
          "ticks": 8640,
          "time": 4.5,
          "velocity": 1
        },
        {
          "duration": 0.125,
          "durationTicks": 240,
          "midi": 67,
          "name": "G4",
          "ticks": 9120,
          "time": 4.75,
          "velocity": 1
        },
        {
          "duration": 0.125,
          "durationTicks": 240,
          "midi": 72,
          "name": "C5",
          "ticks": 9600,
          "time": 5,
          "velocity": 1
        },
        {
          "duration": 1,
          "durationTicks": 1920,
          "midi": 48,
          "name": "C3",
          "ticks": 9600,
          "time": 5,
          "velocity": 1
        },
        {
          "duration": 0.125,
          "durationTicks": 240,
          "midi": 72,
          "name": "C5",
          "ticks": 10080,
          "time": 5.25,
          "velocity": 1
        },
        {
          "duration": 0.125,
          "durationTicks": 240,
          "midi": 72,
          "name": "C5",
          "ticks": 10560,
          "time": 5.5,
          "velocity": 1
        },
        {
          "duration": 0.125,
          "durationTicks": 240,
          "midi": 72,
          "name": "C5",
          "ticks": 11040,
          "time": 5.75,
          "velocity": 1
        },
        {
          "duration": 0.125,
          "durationTicks": 240,
          "midi": 74,
          "name": "D5",
          "ticks": 11520,
          "time": 6,
          "velocity": 1
        },
        {
          "duration": 0.5,
          "durationTicks": 960,
          "midi": 46,
          "name": "A#2",
          "ticks": 11520,
          "time": 6,
          "velocity": 1
        },
        {
          "duration": 0.125,
          "durationTicks": 240,
          "midi": 72,
          "name": "C5",
          "ticks": 12000,
          "time": 6.25,
          "velocity": 1
        },
        {
          "duration": 0.125,
          "durationTicks": 240,
          "midi": 70,
          "name": "A#4",
          "ticks": 12480,
          "time": 6.5,
          "velocity": 1
        },
        {
          "duration": 0.5,
          "durationTicks": 960,
          "midi": 48,
          "name": "C3",
          "ticks": 12480,
          "time": 6.5,
          "velocity": 1
        },
        {
          "duration": 0.125,
          "durationTicks": 240,
          "midi": 67,
          "name": "G4",
          "ticks": 12960,
          "time": 6.75,
          "velocity": 1
        },
        {
          "duration": 0.5,
          "durationTicks": 960,
          "midi": 65,
          "name": "F4",
          "ticks": 13440,
          "time": 7,
          "velocity": 1
        },
        {
          "duration": 0.5,
          "durationTicks": 960,
          "midi": 53,
          "name": "F3",
          "ticks": 13440,
          "time": 7,
          "velocity": 1
        },
        {
          "duration": 0.5,
          "durationTicks": 960,
          "midi": 72,
          "name": "C5",
          "ticks": 14400,
          "time": 7.5,
          "velocity": 1
        },
        {
          "duration": 0.5,
          "durationTicks": 960,
          "midi": 48,
          "name": "C3",
          "ticks": 14400,
          "time": 7.5,
          "velocity": 1
        },
        {
          "duration": 0.125,
          "durationTicks": 240,
          "midi": 69,
          "name": "A4",
          "ticks": 15360,
          "time": 8,
          "velocity": 1
        },
        {
          "duration": 0.5,
          "durationTicks": 960,
          "midi": 53,
          "name": "F3",
          "ticks": 15360,
          "time": 8,
          "velocity": 1
        },
        {
          "duration": 0.125,
          "durationTicks": 240,
          "midi": 69,
          "name": "A4",
          "ticks": 15840,
          "time": 8.25,
          "velocity": 1
        },
        {
          "duration": 0.25,
          "durationTicks": 480,
          "midi": 69,
          "name": "A4",
          "ticks": 16320,
          "time": 8.5,
          "velocity": 1
        },
        {
          "duration": 0.5,
          "durationTicks": 960,
          "midi": 48,
          "name": "C3",
          "ticks": 16320,
          "time": 8.5,
          "velocity": 1
        },
        {
          "duration": 0.125,
          "durationTicks": 240,
          "midi": 69,
          "name": "A4",
          "ticks": 17280,
          "time": 9,
          "velocity": 1
        },
        {
          "duration": 0.5,
          "durationTicks": 960,
          "midi": 53,
          "name": "F3",
          "ticks": 17280,
          "time": 9,
          "velocity": 1
        },
        {
          "duration": 0.125,
          "durationTicks": 240,
          "midi": 69,
          "name": "A4",
          "ticks": 17760,
          "time": 9.25,
          "velocity": 1
        },
        {
          "duration": 0.25,
          "durationTicks": 480,
          "midi": 69,
          "name": "A4",
          "ticks": 18240,
          "time": 9.5,
          "velocity": 1
        },
        {
          "duration": 0.5,
          "durationTicks": 960,
          "midi": 48,
          "name": "C3",
          "ticks": 18240,
          "time": 9.5,
          "velocity": 1
        },
        {
          "duration": 0.125,
          "durationTicks": 240,
          "midi": 69,
          "name": "A4",
          "ticks": 19200,
          "time": 10,
          "velocity": 1
        },
        {
          "duration": 0.5,
          "durationTicks": 960,
          "midi": 53,
          "name": "F3",
          "ticks": 19200,
          "time": 10,
          "velocity": 1
        },
        {
          "duration": 0.125,
          "durationTicks": 240,
          "midi": 72,
          "name": "C5",
          "ticks": 19680,
          "time": 10.25,
          "velocity": 1
        },
        {
          "duration": 0.125,
          "durationTicks": 240,
          "midi": 65,
          "name": "F4",
          "ticks": 20160,
          "time": 10.5,
          "velocity": 1
        },
        {
          "duration": 0.5,
          "durationTicks": 960,
          "midi": 48,
          "name": "C3",
          "ticks": 20160,
          "time": 10.5,
          "velocity": 1
        },
        {
          "duration": 0.125,
          "durationTicks": 240,
          "midi": 67,
          "name": "G4",
          "ticks": 20640,
          "time": 10.75,
          "velocity": 1
        },
        {
          "duration": 0.75,
          "durationTicks": 1440,
          "midi": 69,
          "name": "A4",
          "ticks": 21120,
          "time": 11,
          "velocity": 1
        },
        {
          "duration": 0.5,
          "durationTicks": 960,
          "midi": 53,
          "name": "F3",
          "ticks": 21120,
          "time": 11,
          "velocity": 1
        },
        {
          "duration": 0.5,
          "durationTicks": 960,
          "midi": 48,
          "name": "C3",
          "ticks": 22080,
          "time": 11.5,
          "velocity": 1
        },
        {
          "duration": 0.125,
          "durationTicks": 240,
          "midi": 70,
          "name": "A#4",
          "ticks": 23040,
          "time": 12,
          "velocity": 1
        },
        {
          "duration": 0.5,
          "durationTicks": 960,
          "midi": 46,
          "name": "A#2",
          "ticks": 23040,
          "time": 12,
          "velocity": 1
        },
        {
          "duration": 0.125,
          "durationTicks": 240,
          "midi": 70,
          "name": "A#4",
          "ticks": 23520,
          "time": 12.25,
          "velocity": 1
        },
        {
          "duration": 0.25,
          "durationTicks": 480,
          "midi": 70,
          "name": "A#4",
          "ticks": 24000,
          "time": 12.5,
          "velocity": 1
        },
        {
          "duration": 0.5,
          "durationTicks": 960,
          "midi": 53,
          "name": "F3",
          "ticks": 24000,
          "time": 12.5,
          "velocity": 1
        },
        {
          "duration": 0.125,
          "durationTicks": 240,
          "midi": 70,
          "name": "A#4",
          "ticks": 24720,
          "time": 12.875,
          "velocity": 1
        },
        {
          "duration": 0.125,
          "durationTicks": 240,
          "midi": 70,
          "name": "A#4",
          "ticks": 24960,
          "time": 13,
          "velocity": 1
        },
        {
          "duration": 0.5,
          "durationTicks": 960,
          "midi": 45,
          "name": "A2",
          "ticks": 24960,
          "time": 13,
          "velocity": 1
        },
        {
          "duration": 0.125,
          "durationTicks": 240,
          "midi": 69,
          "name": "A4",
          "ticks": 25440,
          "time": 13.25,
          "velocity": 1
        },
        {
          "duration": 0.125,
          "durationTicks": 240,
          "midi": 69,
          "name": "A4",
          "ticks": 25920,
          "time": 13.5,
          "velocity": 1
        },
        {
          "duration": 0.5,
          "durationTicks": 960,
          "midi": 53,
          "name": "F3",
          "ticks": 25920,
          "time": 13.5,
          "velocity": 1
        },
        {
          "duration": 0.125,
          "durationTicks": 240,
          "midi": 69,
          "name": "A4",
          "ticks": 26400,
          "time": 13.75,
          "velocity": 1
        },
        {
          "duration": 0.125,
          "durationTicks": 240,
          "midi": 72,
          "name": "C5",
          "ticks": 26880,
          "time": 14,
          "velocity": 1
        },
        {
          "duration": 0.5,
          "durationTicks": 960,
          "midi": 48,
          "name": "C3",
          "ticks": 26880,
          "time": 14,
          "velocity": 1
        },
        {
          "duration": 0.25,
          "durationTicks": 480,
          "midi": 60,
          "name": "C4",
          "ticks": 27360,
          "time": 14.25,
          "velocity": 1
        },
        {
          "duration": 0.125,
          "durationTicks": 240,
          "midi": 72,
          "name": "C5",
          "ticks": 27360,
          "time": 14.25,
          "velocity": 1
        },
        {
          "duration": 0.125,
          "durationTicks": 240,
          "midi": 70,
          "name": "A#4",
          "ticks": 27840,
          "time": 14.5,
          "velocity": 1
        },
        {
          "duration": 0.5,
          "durationTicks": 960,
          "midi": 48,
          "name": "C3",
          "ticks": 27840,
          "time": 14.5,
          "velocity": 1
        },
        {
          "duration": 0.125,
          "durationTicks": 240,
          "midi": 67,
          "name": "G4",
          "ticks": 28320,
          "time": 14.75,
          "velocity": 1
        },
        {
          "duration": 0.25,
          "durationTicks": 480,
          "midi": 60,
          "name": "C4",
          "ticks": 28320,
          "time": 14.75,
          "velocity": 1
        },
        {
          "duration": 1,
          "durationTicks": 1920,
          "midi": 65,
          "name": "F4",
          "ticks": 28800,
          "time": 15,
          "velocity": 1
        },
        {
          "duration": 1,
          "durationTicks": 1920,
          "midi": 53,
          "name": "F3",
          "ticks": 28800,
          "time": 15,
          "velocity": 1
        }
      ],
      "endOfTrackTicks": 30720
    }
  ]
}
